<?xml version="1.0" encoding="UTF-8"?>
<svg version="1.1" xmlns="http://www.w3.org/2000/svg" width="486" height="486">
<path d="M0 0 C15.84 0 31.68 0 48 0 C48 10.56 48 21.12 48 32 C53.28 32 58.56 32 64 32 C64 34.64 64 37.28 64 40 C71.92 40 79.84 40 88 40 C88 34.72 88 29.44 88 24 C90.64 24 93.28 24 96 24 C96 21.36 96 18.72 96 16 C103.92 16 111.84 16 120 16 C120 18.64 120 21.28 120 24 C125.28 24 130.56 24 136 24 C136 29.28 136 34.56 136 40 C133.36 40 130.72 40 128 40 C128 47.92 128 55.84 128 64 C130.64 64 133.28 64 136 64 C136 66.64 136 69.28 136 72 C141.28 72 146.56 72 152 72 C152 74.64 152 77.28 152 80 C154.64 80 157.28 80 160 80 C160 77.36 160 74.72 160 72 C162.64 72 165.28 72 168 72 C168 69.36 168 66.72 168 64 C170.64 64 173.28 64 176 64 C176 61.36 176 58.72 176 56 C178.64 56 181.28 56 184 56 C184 58.64 184 61.28 184 64 C186.64 64 189.28 64 192 64 C192 66.64 192 69.28 192 72 C194.64 72 197.28 72 200 72 C200 74.64 200 77.28 200 80 C202.64 80 205.28 80 208 80 C208 82.64 208 85.28 208 88 C205.36 88 202.72 88 200 88 C200 90.64 200 93.28 200 96 C197.36 96 194.72 96 192 96 C192 98.64 192 101.28 192 104 C189.36 104 186.72 104 184 104 C184 106.64 184 109.28 184 112 C186.64 112 189.28 112 192 112 C192 117.28 192 122.56 192 128 C194.64 128 197.28 128 200 128 C200 130.64 200 133.28 200 136 C207.92 136 215.84 136 224 136 C224 133.36 224 130.72 224 128 C229.28 128 234.56 128 240 128 C240 133.28 240 138.56 240 144 C242.64 144 245.28 144 248 144 C248 151.92 248 159.84 248 168 C245.36 168 242.72 168 240 168 C240 170.64 240 173.28 240 176 C234.72 176 229.44 176 224 176 C224 183.92 224 191.84 224 200 C226.64 200 229.28 200 232 200 C232 205.28 232 210.56 232 216 C242.56 216 253.12 216 264 216 C264 231.84 264 247.68 264 264 C261.36 264 258.72 264 256 264 C256 266.64 256 269.28 256 272 C248.08 272 240.16 272 232 272 C232 274.64 232 277.28 232 280 C229.36 280 226.72 280 224 280 C224 287.92 224 295.84 224 304 C226.64 304 229.28 304 232 304 C232 306.64 232 309.28 232 312 C237.28 312 242.56 312 248 312 C248 319.92 248 327.84 248 336 C245.36 336 242.72 336 240 336 C240 341.28 240 346.56 240 352 C237.36 352 234.72 352 232 352 C232 354.64 232 357.28 232 360 C226.72 360 221.44 360 216 360 C216 357.36 216 354.72 216 352 C208.08 352 200.16 352 192 352 C192 357.28 192 362.56 192 368 C189.36 368 186.72 368 184 368 C184 370.64 184 373.28 184 376 C186.64 376 189.28 376 192 376 C192 378.64 192 381.28 192 384 C194.64 384 197.28 384 200 384 C200 386.64 200 389.28 200 392 C202.64 392 205.28 392 208 392 C208 394.64 208 397.28 208 400 C205.36 400 202.72 400 200 400 C200 402.64 200 405.28 200 408 C197.36 408 194.72 408 192 408 C192 410.64 192 413.28 192 416 C189.36 416 186.72 416 184 416 C184 418.64 184 421.28 184 424 C181.36 424 178.72 424 176 424 C176 426.64 176 429.28 176 432 C173.36 432 170.72 432 168 432 C168 429.36 168 426.72 168 424 C165.36 424 162.72 424 160 424 C160 421.36 160 418.72 160 416 C157.36 416 154.72 416 152 416 C152 413.36 152 410.72 152 408 C149.36 408 146.72 408 144 408 C144 410.64 144 413.28 144 416 C138.72 416 133.44 416 128 416 C128 423.92 128 431.84 128 440 C130.64 440 133.28 440 136 440 C136 445.28 136 450.56 136 456 C133.36 456 130.72 456 128 456 C128 458.64 128 461.28 128 464 C122.72 464 117.44 464 112 464 C112 466.64 112 469.28 112 472 C104.08 472 96.16 472 88 472 C88 466.72 88 461.44 88 456 C85.36 456 82.72 456 80 456 C80 453.36 80 450.72 80 448 C72.08 448 64.16 448 56 448 C56 450.64 56 453.28 56 456 C53.36 456 50.72 456 48 456 C48 463.92 48 471.84 48 480 C45.36 480 42.72 480 40 480 C40 481.98 40 483.96 40 486 C24.16 486 8.32 486 -8 486 C-8 476.1 -8 466.2 -8 456 C-13.28 456 -18.56 456 -24 456 C-24 453.36 -24 450.72 -24 448 C-31.92 448 -39.84 448 -48 448 C-48 453.28 -48 458.56 -48 464 C-50.64 464 -53.28 464 -56 464 C-56 466.64 -56 469.28 -56 472 C-63.92 472 -71.84 472 -80 472 C-80 469.36 -80 466.72 -80 464 C-85.28 464 -90.56 464 -96 464 C-96 458.72 -96 453.44 -96 448 C-93.36 448 -90.72 448 -88 448 C-88 440.08 -88 432.16 -88 424 C-90.64 424 -93.28 424 -96 424 C-96 421.36 -96 418.72 -96 416 C-101.28 416 -106.56 416 -112 416 C-112 413.36 -112 410.72 -112 408 C-114.64 408 -117.28 408 -120 408 C-120 410.64 -120 413.28 -120 416 C-122.64 416 -125.28 416 -128 416 C-128 418.64 -128 421.28 -128 424 C-130.64 424 -133.28 424 -136 424 C-136 426.64 -136 429.28 -136 432 C-138.64 432 -141.28 432 -144 432 C-144 429.36 -144 426.72 -144 424 C-146.64 424 -149.28 424 -152 424 C-152 421.36 -152 418.72 -152 416 C-154.64 416 -157.28 416 -160 416 C-160 413.36 -160 410.72 -160 408 C-162.64 408 -165.28 408 -168 408 C-168 405.36 -168 402.72 -168 400 C-165.36 400 -162.72 400 -160 400 C-160 397.36 -160 394.72 -160 392 C-157.36 392 -154.72 392 -152 392 C-152 389.36 -152 386.72 -152 384 C-149.36 384 -146.72 384 -144 384 C-144 381.36 -144 378.72 -144 376 C-146.64 376 -149.28 376 -152 376 C-152 370.72 -152 365.44 -152 360 C-154.64 360 -157.28 360 -160 360 C-160 357.36 -160 354.72 -160 352 C-167.92 352 -175.84 352 -184 352 C-184 354.64 -184 357.28 -184 360 C-189.28 360 -194.56 360 -200 360 C-200 354.72 -200 349.44 -200 344 C-202.64 344 -205.28 344 -208 344 C-208 336.08 -208 328.16 -208 320 C-205.36 320 -202.72 320 -200 320 C-200 317.36 -200 314.72 -200 312 C-194.72 312 -189.44 312 -184 312 C-184 304.08 -184 296.16 -184 288 C-186.64 288 -189.28 288 -192 288 C-192 282.72 -192 277.44 -192 272 C-201.9 272 -211.8 272 -222 272 C-222 256.16 -222 240.32 -222 224 C-220.02 224 -218.04 224 -216 224 C-216 221.36 -216 218.72 -216 216 C-208.08 216 -200.16 216 -192 216 C-192 213.36 -192 210.72 -192 208 C-189.36 208 -186.72 208 -184 208 C-184 200.08 -184 192.16 -184 184 C-186.64 184 -189.28 184 -192 184 C-192 181.36 -192 178.72 -192 176 C-197.28 176 -202.56 176 -208 176 C-208 168.08 -208 160.16 -208 152 C-205.36 152 -202.72 152 -200 152 C-200 146.72 -200 141.44 -200 136 C-197.36 136 -194.72 136 -192 136 C-192 133.36 -192 130.72 -192 128 C-186.72 128 -181.44 128 -176 128 C-176 130.64 -176 133.28 -176 136 C-168.08 136 -160.16 136 -152 136 C-152 130.72 -152 125.44 -152 120 C-149.36 120 -146.72 120 -144 120 C-144 117.36 -144 114.72 -144 112 C-146.64 112 -149.28 112 -152 112 C-152 109.36 -152 106.72 -152 104 C-154.64 104 -157.28 104 -160 104 C-160 101.36 -160 98.72 -160 96 C-162.64 96 -165.28 96 -168 96 C-168 93.36 -168 90.72 -168 88 C-165.36 88 -162.72 88 -160 88 C-160 85.36 -160 82.72 -160 80 C-157.36 80 -154.72 80 -152 80 C-152 77.36 -152 74.72 -152 72 C-149.36 72 -146.72 72 -144 72 C-144 69.36 -144 66.72 -144 64 C-141.36 64 -138.72 64 -136 64 C-136 61.36 -136 58.72 -136 56 C-133.36 56 -130.72 56 -128 56 C-128 58.64 -128 61.28 -128 64 C-125.36 64 -122.72 64 -120 64 C-120 66.64 -120 69.28 -120 72 C-117.36 72 -114.72 72 -112 72 C-112 74.64 -112 77.28 -112 80 C-109.36 80 -106.72 80 -104 80 C-104 77.36 -104 74.72 -104 72 C-98.72 72 -93.44 72 -88 72 C-88 64.08 -88 56.16 -88 48 C-90.64 48 -93.28 48 -96 48 C-96 42.72 -96 37.44 -96 32 C-93.36 32 -90.72 32 -88 32 C-88 29.36 -88 26.72 -88 24 C-82.72 24 -77.44 24 -72 24 C-72 21.36 -72 18.72 -72 16 C-64.08 16 -56.16 16 -48 16 C-48 21.28 -48 26.56 -48 32 C-45.36 32 -42.72 32 -40 32 C-40 34.64 -40 37.28 -40 40 C-32.08 40 -24.16 40 -16 40 C-16 37.36 -16 34.72 -16 32 C-13.36 32 -10.72 32 -8 32 C-8 24.08 -8 16.16 -8 8 C-5.36 8 -2.72 8 0 8 C0 5.36 0 2.72 0 0 Z M-45.390625 225.33984375 C-48.64007691 228.69182691 -51.19310849 232.70134682 -53 237 C-52.67 237.99 -52.34 238.98 -52 240 C-51.48953125 239.22076172 -51.48953125 239.22076172 -50.96875 238.42578125 C-46.70866277 232.29624085 -42.13284989 228.37761663 -35 226 C-26.23490823 225.13947206 -19.30126629 225.84533424 -12 231 C-9.625 233.5 -9.625 233.5 -8 236 C-7.2575 236.928125 -6.515 237.85625 -5.75 238.8125 C-5.1725 239.534375 -4.595 240.25625 -4 241 C-4.74277743 233.20083695 -8.92315146 228.45177868 -14.70703125 223.546875 C-24.37551085 217.02435725 -36.32453213 218.28124287 -45.390625 225.33984375 Z M51.921875 227.8046875 C49.08207208 231.04852742 47.50840403 233.95473465 46 238 C46.33 238.99 46.66 239.98 47 241 C47.54527344 240.22076172 47.54527344 240.22076172 48.1015625 239.42578125 C52.49423525 233.33235571 56.64644048 228.41935292 64 226 C71.86424879 225.12393083 79.37058807 225.33869474 86 230 C89.81248944 233.633779 92.86097517 237.78957149 96 242 C95.68623867 235.88165413 92.88726035 231.5459802 89 227 C77.12363374 216.67939389 63.27455536 216.89484219 51.921875 227.8046875 Z M-54 240 C-53 243 -53 243 -53 243 Z M-4 241 C-3 244 -3 244 -3 244 Z M45 242 C46 244 46 244 46 244 Z M96 243 C97 245 97 245 97 245 Z M-57.125 311 C-57.74375 311.66 -58.3625 312.32 -59 313 C-58.45255127 313.17740723 -57.90510254 313.35481445 -57.34106445 313.53759766 C-53.41532544 314.82567192 -49.52109749 316.15593519 -45.66796875 317.6484375 C-37.44642097 320.83023583 -29.24194156 323.65839093 -20.6875 325.8125 C-19.92526123 326.0069873 -19.16302246 326.20147461 -18.37768555 326.40185547 C-5.51949484 329.50090429 7.20839604 330.40952461 20.375 330.375 C21.16002899 330.37445618 21.94505798 330.37391235 22.75387573 330.37335205 C47.38403079 330.29531468 69.5023101 325.09359075 92.30859375 316.03515625 C95.50390437 314.80619063 98.68573477 313.84783529 102 313 C100.33454661 310.83358335 100.33454661 310.83358335 98 309 C94.56887125 309.39735236 91.50600096 310.4660072 88.296875 311.70703125 C66.36802266 320.03117433 45.28205389 324.43835413 21.8125 324.3125 C21.0986615 324.31067719 20.384823 324.30885437 19.64935303 324.30697632 C-4.688052 324.20299347 -27.04040674 319.58802509 -49.53515625 310.35546875 C-53.78373561 308.43339937 -53.78373561 308.43339937 -57.125 311 Z M-128 314 C-125.43321354 323.74555289 -115.76937176 327.6245368 -107.58276367 332.4362793 C-94.42748763 340.03338894 -81.09914092 346.59897199 -66.875 351.9375 C-66.09302246 352.23245361 -65.31104492 352.52740723 -64.50537109 352.83129883 C-59.98469735 354.47132319 -55.78506889 355.49864663 -51 356 C-40.97827865 344.52705088 -40.97827865 344.52705088 -36 331 C-40.27413129 332.42471043 -41.42855069 335.59114305 -43.5625 339.3125 C-43.96146484 339.98990234 -44.36042969 340.66730469 -44.77148438 341.36523438 C-46.6249359 344.53064491 -48.38142932 347.70707714 -50 351 C-58.15221394 349.17347431 -65.7528193 346.76833807 -73.4375 343.5 C-74.46665527 343.0656665 -75.49581055 342.63133301 -76.55615234 342.18383789 C-91.02197503 335.9675518 -104.90967056 328.7435166 -117.9921875 319.97265625 C-121.25992205 317.82953164 -124.59137951 315.90934005 -128 314 Z M169 314 C167.70642578 314.89138672 167.70642578 314.89138672 166.38671875 315.80078125 C144.61507191 330.65501522 118.54172806 347.17452062 92 351 C91.7628125 350.32324219 91.525625 349.64648438 91.28125 348.94921875 C89.69932767 345.30790364 87.66862614 342.12779587 85.5 338.8125 C85.09652344 338.18408203 84.69304687 337.55566406 84.27734375 336.90820312 C82.65334453 334.40252776 81.11736466 332.11736466 79 330 C78.67 330.66 78.34 331.32 78 332 C79.27530746 334.62263227 80.60367871 337.10679321 82.0625 339.625 C82.4742749 340.346875 82.8860498 341.06875 83.31030273 341.8125 C86.21540131 346.83312658 89.33752909 351.4923435 93 356 C98.85901871 355.46855485 103.74592748 354.26196942 109.1875 352.0625 C109.95505615 351.75675049 110.7226123 351.45100098 111.51342773 351.13598633 C131.34985718 343.08073514 154.59650788 333.40349212 170 318 C169.6814823 315.89179203 169.6814823 315.89179203 169 314 Z " fill="#000000" transform="translate(222,0)"/>
<path d="M0 0 C2.64 0 5.28 0 8 0 C8 2.64 8 5.28 8 8 C10.64 8 13.28 8 16 8 C16 10.64 16 13.28 16 16 C18.64 16 21.28 16 24 16 C24 18.64 24 21.28 24 24 C26.64 24 29.28 24 32 24 C32 26.64 32 29.28 32 32 C29.36 32 26.72 32 24 32 C24 34.64 24 37.28 24 40 C21.36 40 18.72 40 16 40 C16 42.64 16 45.28 16 48 C13.36 48 10.72 48 8 48 C8 50.64 8 53.28 8 56 C5.36 56 2.72 56 0 56 C0 58.64 0 61.28 0 64 C-2.64 64 -5.28 64 -8 64 C-8 66.64 -8 69.28 -8 72 C-10.64 72 -13.28 72 -16 72 C-16 74.64 -16 77.28 -16 80 C-18.64 80 -21.28 80 -24 80 C-24 82.64 -24 85.28 -24 88 C-26.64 88 -29.28 88 -32 88 C-32 90.64 -32 93.28 -32 96 C-35.63 96.33 -39.26 96.66 -43 97 C-42.24976563 98.33289063 -41.49953125 99.66578125 -40.7265625 101.0390625 C-27.14368387 125.39895642 -16.74440955 149.9201738 -10 177 C-9.78601563 177.80824219 -9.57203125 178.61648437 -9.3515625 179.44921875 C-8.25467859 183.62214668 -7.53415267 187.72677862 -7 192 C-4.69 192 -2.38 192 0 192 C0 194.64 0 197.28 0 200 C5.28 200 10.56 200 16 200 C16 202.64 16 205.28 16 208 C9.07 208 2.14 208 -5 208 C-5 215.92 -5 223.84 -5 232 C-3.35 232 -1.7 232 0 232 C0 234.64 0 237.28 0 240 C-1.65 240 -3.3 240 -5 240 C-4.97679687 240.70125 -4.95359375 241.4025 -4.9296875 242.125 C-4.91164063 243.07375 -4.89359375 244.0225 -4.875 245 C-4.85179687 245.928125 -4.82859375 246.85625 -4.8046875 247.8125 C-5.15597176 253.54545914 -5.43681552 257.56291385 -9.80859375 261.58203125 C-11.00185316 262.35152886 -12.2130286 263.09370629 -13.4375 263.8125 C-14.10072266 264.225 -14.76394531 264.6375 -15.44726562 265.0625 C-16.87787547 265.9438933 -18.31619565 266.81287121 -19.76123047 267.67041016 C-21.99501419 268.99703896 -24.20241473 270.36103614 -26.41015625 271.73046875 C-69.5091468 298.00072714 -69.5091468 298.00072714 -84 295 C-86.33211727 292.61366585 -87.93795307 289.86416725 -89.625 287 C-90.0890625 286.25621094 -90.553125 285.51242187 -91.03125 284.74609375 C-99 271.80250265 -99 271.80250265 -99 268 C-90.09 264.04 -90.09 264.04 -81 260 C-81 259.34 -81 258.68 -81 258 C-79.35 257.67 -77.7 257.34 -76 257 C-76.66 256.01 -77.32 255.02 -78 254 C-81.40015315 254.6062026 -84.48391071 255.46210587 -87.703125 256.70703125 C-109.63197734 265.03117433 -130.71794611 269.43835413 -154.1875 269.3125 C-155.25825775 269.30976578 -155.25825775 269.30976578 -156.35064697 269.30697632 C-179.51604387 269.20800094 -201.86428307 265.5263588 -223.12768555 256.05957031 C-226.5021479 254.62422574 -228.39861861 253.83832994 -232.0078125 254.80859375 C-232.66523438 255.20175781 -233.32265625 255.59492188 -234 256 C-234 256.33 -234 256.66 -234 257 C-232.88625 257.2475 -231.7725 257.495 -230.625 257.75 C-225.55080873 259.00490752 -220.80672978 260.97092964 -216 263 C-216.66 263.33 -217.32 263.66 -218 264 C-218 264.66 -218 265.32 -218 266 C-215.69 266.66 -213.38 267.32 -211 268 C-211.66 269.98 -212.32 271.96 -213 274 C-212.34 274 -211.68 274 -211 274 C-211.33 274.66 -211.66 275.32 -212 276 C-212.66 276 -213.32 276 -214 276 C-215.56724796 278.39101965 -217.02002838 280.77228709 -218.4375 283.25 C-219.60337312 285.26222474 -220.77313155 287.26945145 -221.97607422 289.25976562 C-223.09314158 291.1024492 -223.09314158 291.1024492 -224.22265625 293.546875 C-226 295 -226 295 -229.9609375 295.01953125 C-235.81353562 294.07164172 -241.16355978 291.93179252 -246.625 289.6875 C-247.70950439 289.24672119 -248.79400879 288.80594238 -249.91137695 288.35180664 C-266.45605774 281.47688996 -282.20134427 273.09646939 -297 263 C-298.09183594 262.29875 -299.18367188 261.5975 -300.30859375 260.875 C-303 259 -303 259 -304 257 C-304.97791815 251.16125901 -305.14922596 245.29340046 -305.1328125 239.38671875 C-305.13424759 238.22146416 -305.13424759 238.22146416 -305.13571167 237.03266907 C-305.13638614 235.40841591 -305.13458361 233.78415994 -305.13037109 232.15991211 C-305.12497547 229.67620852 -305.1303597 227.19268273 -305.13671875 224.70898438 C-305.13605855 223.12239544 -305.1347786 221.53580661 -305.1328125 219.94921875 C-305.13483673 219.21064133 -305.13686096 218.4720639 -305.13894653 217.71110535 C-305.12307231 214.22924831 -304.85207026 211.40828104 -304 208 C-311.92 208 -319.84 208 -328 208 C-328 205.36 -328 202.72 -328 200 C-330.64 200 -333.28 200 -336 200 C-336 192.08 -336 184.16 -336 176 C-333.36 176 -330.72 176 -328 176 C-328 181.28 -328 186.56 -328 192 C-325.36 192 -322.72 192 -320 192 C-320 194.64 -320 197.28 -320 200 C-314.72 200 -309.44 200 -304 200 C-302.515 192.08 -302.515 192.08 -301 184 C-301.99 184 -302.98 184 -304 184 C-304 181.36 -304 178.72 -304 176 C-302.35 176 -300.7 176 -299 176 C-298.89550537 175.33572998 -298.79101074 174.67145996 -298.68334961 173.98706055 C-297.51636769 167.04294041 -295.80469613 160.48306151 -293.5625 153.8125 C-293.21687012 152.78366699 -292.87124023 151.75483398 -292.51513672 150.69482422 C-285.94562275 131.71847036 -277.16397099 112.74595648 -266 96 C-267.98 96 -269.96 96 -272 96 C-272 93.36 -272 90.72 -272 88 C-271.25234375 88.03480469 -270.5046875 88.06960937 -269.734375 88.10546875 C-268.25710938 88.14607422 -268.25710938 88.14607422 -266.75 88.1875 C-265.77546875 88.22230469 -264.8009375 88.25710937 -263.796875 88.29296875 C-260.5055424 87.94820626 -259.59599455 86.9605988 -257 85 C-255.39141714 84.25831808 -253.75358544 83.57813003 -252.09765625 82.94921875 C-251.1348877 82.58320557 -250.17211914 82.21719238 -249.18017578 81.84008789 C-248.15134277 81.45973389 -247.12250977 81.07937988 -246.0625 80.6875 C-245.00015137 80.29232178 -243.93780273 79.89714355 -242.84326172 79.48999023 C-209.47685395 67.2906919 -209.47685395 67.2906919 -196 68 C-195.16180842 69.62249941 -194.3295884 71.24808497 -193.5 72.875 C-193.0359375 73.77992188 -192.571875 74.68484375 -192.09375 75.6171875 C-191 78 -191 78 -191 80 C-188.69 80 -186.38 80 -184 80 C-184 80.99 -184 81.98 -184 83 C-178.72 82.34 -173.44 81.68 -168 81 C-170.64 80.67 -173.28 80.34 -176 80 C-176 77.36 -176 74.72 -176 72 C-157.52 72 -139.04 72 -120 72 C-119.67 73.98 -119.34 75.96 -119 78 C-116.525 73.05 -116.525 73.05 -114 68 C-107.62358717 68.4367406 -101.56798974 69.23367853 -95.3125 70.5625 C-90.04772627 71.66917693 -85.36233133 72.328306 -80 72 C-80 69.36 -80 66.72 -80 64 C-77.36 64 -74.72 64 -72 64 C-72 61.36 -72 58.72 -72 56 C-69.36 56 -66.72 56 -64 56 C-64 53.36 -64 50.72 -64 48 C-61.36 48 -58.72 48 -56 48 C-56 45.36 -56 42.72 -56 40 C-53.36 40 -50.72 40 -48 40 C-48 37.36 -48 34.72 -48 32 C-45.36 32 -42.72 32 -40 32 C-40 26.72 -40 21.44 -40 16 C-34.72 16 -29.44 16 -24 16 C-24 18.64 -24 21.28 -24 24 C-21.36 24 -18.72 24 -16 24 C-16 21.36 -16 18.72 -16 16 C-13.36 16 -10.72 16 -8 16 C-8 13.36 -8 10.72 -8 8 C-5.36 8 -2.72 8 0 8 C0 5.36 0 2.72 0 0 Z M-221.390625 169.33984375 C-224.64007691 172.69182691 -227.19310849 176.70134682 -229 181 C-228.67 181.99 -228.34 182.98 -228 184 C-227.48953125 183.22076172 -227.48953125 183.22076172 -226.96875 182.42578125 C-222.70866277 176.29624085 -218.13284989 172.37761663 -211 170 C-202.23490823 169.13947206 -195.30126629 169.84533424 -188 175 C-185.625 177.5 -185.625 177.5 -184 180 C-183.2575 180.928125 -182.515 181.85625 -181.75 182.8125 C-181.1725 183.534375 -180.595 184.25625 -180 185 C-180.74277743 177.20083695 -184.92315146 172.45177868 -190.70703125 167.546875 C-200.37551085 161.02435725 -212.32453213 162.28124287 -221.390625 169.33984375 Z M-124.078125 171.8046875 C-126.91792792 175.04852742 -128.49159597 177.95473465 -130 182 C-129.67 182.99 -129.34 183.98 -129 185 C-128.45472656 184.22076172 -128.45472656 184.22076172 -127.8984375 183.42578125 C-123.50576475 177.33235571 -119.35355952 172.41935292 -112 170 C-104.13575121 169.12393083 -96.62941193 169.33869474 -90 174 C-86.18751056 177.633779 -83.13902483 181.78957149 -80 186 C-80.31376133 179.88165413 -83.11273965 175.5459802 -87 171 C-98.87636626 160.67939389 -112.72544464 160.89484219 -124.078125 171.8046875 Z M-230 184 C-229 187 -229 187 -229 187 Z M-180 185 C-179 188 -179 188 -179 188 Z M-131 186 C-130 188 -130 188 -130 188 Z M-80 187 C-79 189 -79 189 -79 189 Z " fill="#B787CE" transform="translate(398,56)"/>
<path d="M0 0 C15.84 0 31.68 0 48 0 C48 10.56 48 21.12 48 32 C53.28 32 58.56 32 64 32 C64 34.64 64 37.28 64 40 C71.92 40 79.84 40 88 40 C88 34.72 88 29.44 88 24 C90.64 24 93.28 24 96 24 C96 21.36 96 18.72 96 16 C103.92 16 111.84 16 120 16 C120 18.64 120 21.28 120 24 C125.28 24 130.56 24 136 24 C136 29.28 136 34.56 136 40 C133.36 40 130.72 40 128 40 C128 47.92 128 55.84 128 64 C130.64 64 133.28 64 136 64 C136 71.92 136 79.84 136 88 C133.36 88 130.72 88 128 88 C128 90.64 128 93.28 128 96 C125.36 96 122.72 96 120 96 C120 98.64 120 101.28 120 104 C117.36 104 114.72 104 112 104 C112 106.64 112 109.28 112 112 C109.36 112 106.72 112 104 112 C104 114.64 104 117.28 104 120 C101.36 120 98.72 120 96 120 C96 122.64 96 125.28 96 128 C87.97783114 129.40067832 81.24875789 128.3946077 73.375 126.5625 C71.72564453 126.19801758 71.72564453 126.19801758 70.04296875 125.82617188 C67.35863258 125.23094951 64.67821983 124.62206085 62 124 C61.70351563 124.92039062 61.40703125 125.84078125 61.1015625 126.7890625 C59.9884035 130.03380256 58.58987983 132.96477488 57 136 C56.67 136 56.34 136 56 136 C56 133.36 56 130.72 56 128 C37.52 128 19.04 128 0 128 C0 130.64 0 133.28 0 136 C5.28 136 10.56 136 16 136 C16 136.33 16 136.66 16 137 C4.12 137.99 4.12 137.99 -8 139 C-8 138.01 -8 137.02 -8 136 C-10.31 136 -12.62 136 -15 136 C-15.83819158 134.37750059 -16.6704116 132.75191503 -17.5 131.125 C-17.9640625 130.22007812 -18.428125 129.31515625 -18.90625 128.3828125 C-20 126 -20 126 -20 124 C-33.65593551 126.37444171 -46.81541753 129.64124295 -59.9375 134.0625 C-60.89236298 134.3823587 -60.89236298 134.3823587 -61.86651611 134.7086792 C-74.30774282 138.25204832 -74.30774282 138.25204832 -85 145 C-87.6015625 144.9765625 -87.6015625 144.9765625 -90.625 144.625 C-91.62789062 144.51414063 -92.63078125 144.40328125 -93.6640625 144.2890625 C-94.43492188 144.19367188 -95.20578125 144.09828125 -96 144 C-96 146.64 -96 149.28 -96 152 C-94.02 152 -92.04 152 -90 152 C-91.27753917 155.35451095 -92.72487675 158.44664466 -94.50390625 161.5625 C-107.06327083 183.8647363 -116.87405597 207.08782761 -123 232 C-124.65 232 -126.3 232 -128 232 C-128 234.64 -128 237.28 -128 240 C-127.01 240 -126.02 240 -125 240 C-125.66 245.61 -126.32 251.22 -127 257 C-132.61 256.67 -138.22 256.34 -144 256 C-144 253.36 -144 250.72 -144 248 C-146.64 248 -149.28 248 -152 248 C-152 242.72 -152 237.44 -152 232 C-154.64 232 -157.28 232 -160 232 C-160 239.92 -160 247.84 -160 256 C-157.36 256 -154.72 256 -152 256 C-152 258.64 -152 261.28 -152 264 C-144.08 264 -136.16 264 -128 264 C-128.01160156 266.74828125 -128.02320313 269.4965625 -128.03515625 272.328125 C-128.04298445 275.02897018 -128.04903973 277.72981404 -128.05493164 280.43066406 C-128.05991956 282.28874286 -128.06671228 284.14681782 -128.07543945 286.00488281 C-129.37313265 304.34990907 -129.37313265 304.34990907 -124 321 C-122.27997445 322.54078463 -122.27997445 322.54078463 -120.2890625 323.7265625 C-119.54922119 324.19570068 -118.80937988 324.66483887 -118.04711914 325.14819336 C-117.24781982 325.63553955 -116.44852051 326.12288574 -115.625 326.625 C-114.37481079 327.39952515 -114.37481079 327.39952515 -113.09936523 328.18969727 C-100.01402734 336.17663044 -86.37921194 343.61151685 -72 349 C-72 349.99 -72 350.98 -72 352 C-77.28 352 -82.56 352 -88 352 C-88 354.64 -88 357.28 -88 360 C-93.28 360 -98.56 360 -104 360 C-104 357.36 -104 354.72 -104 352 C-106.64 352 -109.28 352 -112 352 C-112 362.56 -112 373.12 -112 384 C-117.28 384 -122.56 384 -128 384 C-128 381.36 -128 378.72 -128 376 C-130.64 376 -133.28 376 -136 376 C-136 373.36 -136 370.72 -136 368 C-138.64 368 -141.28 368 -144 368 C-144 362.72 -144 357.44 -144 352 C-146.64 352 -149.28 352 -152 352 C-152 349.36 -152 346.72 -152 344 C-154.64 344 -157.28 344 -160 344 C-160 341.36 -160 338.72 -160 336 C-162.64 336 -165.28 336 -168 336 C-168 328.08 -168 320.16 -168 312 C-170.64 312 -173.28 312 -176 312 C-176 304.08 -176 296.16 -176 288 C-181.28 288 -186.56 288 -192 288 C-192 282.72 -192 277.44 -192 272 C-201.9 272 -211.8 272 -222 272 C-222 256.16 -222 240.32 -222 224 C-220.02 224 -218.04 224 -216 224 C-216 221.36 -216 218.72 -216 216 C-208.08 216 -200.16 216 -192 216 C-192 213.36 -192 210.72 -192 208 C-189.36 208 -186.72 208 -184 208 C-184 200.08 -184 192.16 -184 184 C-186.64 184 -189.28 184 -192 184 C-192 181.36 -192 178.72 -192 176 C-197.28 176 -202.56 176 -208 176 C-208 168.08 -208 160.16 -208 152 C-205.36 152 -202.72 152 -200 152 C-200 146.72 -200 141.44 -200 136 C-197.36 136 -194.72 136 -192 136 C-192 133.36 -192 130.72 -192 128 C-186.72 128 -181.44 128 -176 128 C-176 130.64 -176 133.28 -176 136 C-168.08 136 -160.16 136 -152 136 C-152 130.72 -152 125.44 -152 120 C-149.36 120 -146.72 120 -144 120 C-144 117.36 -144 114.72 -144 112 C-146.64 112 -149.28 112 -152 112 C-152 109.36 -152 106.72 -152 104 C-154.64 104 -157.28 104 -160 104 C-160 101.36 -160 98.72 -160 96 C-162.64 96 -165.28 96 -168 96 C-168 93.36 -168 90.72 -168 88 C-165.36 88 -162.72 88 -160 88 C-160 85.36 -160 82.72 -160 80 C-157.36 80 -154.72 80 -152 80 C-152 77.36 -152 74.72 -152 72 C-149.36 72 -146.72 72 -144 72 C-144 69.36 -144 66.72 -144 64 C-141.36 64 -138.72 64 -136 64 C-136 61.36 -136 58.72 -136 56 C-133.36 56 -130.72 56 -128 56 C-128 58.64 -128 61.28 -128 64 C-125.36 64 -122.72 64 -120 64 C-120 66.64 -120 69.28 -120 72 C-117.36 72 -114.72 72 -112 72 C-112 74.64 -112 77.28 -112 80 C-109.36 80 -106.72 80 -104 80 C-104 77.36 -104 74.72 -104 72 C-98.72 72 -93.44 72 -88 72 C-88 64.08 -88 56.16 -88 48 C-90.64 48 -93.28 48 -96 48 C-96 42.72 -96 37.44 -96 32 C-93.36 32 -90.72 32 -88 32 C-88 29.36 -88 26.72 -88 24 C-82.72 24 -77.44 24 -72 24 C-72 21.36 -72 18.72 -72 16 C-64.08 16 -56.16 16 -48 16 C-48 21.28 -48 26.56 -48 32 C-45.36 32 -42.72 32 -40 32 C-40 34.64 -40 37.28 -40 40 C-32.08 40 -24.16 40 -16 40 C-16 37.36 -16 34.72 -16 32 C-13.36 32 -10.72 32 -8 32 C-8 24.08 -8 16.16 -8 8 C-5.36 8 -2.72 8 0 8 C0 5.36 0 2.72 0 0 Z " fill="#000000" transform="translate(222,0)"/>
<path d="M0 0 C5.28 0 10.56 0 16 0 C16 5.28 16 10.56 16 16 C18.64 16 21.28 16 24 16 C24 18.64 24 21.28 24 24 C31.92 24 39.84 24 48 24 C48 21.36 48 18.72 48 16 C53.28 16 58.56 16 64 16 C64 21.28 64 26.56 64 32 C66.64 32 69.28 32 72 32 C72 39.92 72 47.84 72 56 C69.36 56 66.72 56 64 56 C64 58.64 64 61.28 64 64 C58.72 64 53.44 64 48 64 C48 69.28 48 74.56 48 80 C45.36 80 42.72 80 40 80 C40 74.72 40 69.44 40 64 C37.36 64 34.72 64 32 64 C32 66.64 32 69.28 32 72 C29.36 72 26.72 72 24 72 C24 74.64 24 77.28 24 80 C21.36 80 18.72 80 16 80 C16 82.64 16 85.28 16 88 C13.36 88 10.72 88 8 88 C8 90.64 8 93.28 8 96 C5.36 96 2.72 96 0 96 C0 98.64 0 101.28 0 104 C-2.64 104 -5.28 104 -8 104 C-8 106.64 -8 109.28 -8 112 C-9.32 112 -10.64 112 -12 112 C-12.33 112.66 -12.66 113.32 -13 114 C-13.1544458 113.40388916 -13.3088916 112.80777832 -13.46801758 112.19360352 C-19.48752691 89.37334169 -28.70728236 68.55068823 -39.9921875 47.87353516 C-41.38810148 45.27851484 -42.70068492 42.64443935 -44 40 C-40.04 40 -36.08 40 -32 40 C-32 37.36 -32 34.72 -32 32 C-29.36 32 -26.72 32 -24 32 C-24 29.36 -24 26.72 -24 24 C-21.36 24 -18.72 24 -16 24 C-16 21.36 -16 18.72 -16 16 C-13.36 16 -10.72 16 -8 16 C-8 13.36 -8 10.72 -8 8 C-5.36 8 -2.72 8 0 8 C0 5.36 0 2.72 0 0 Z " fill="#80599B" transform="translate(398,112)"/>
<path d="M0 0 C2.64 0 5.28 0 8 0 C8 2.64 8 5.28 8 8 C10.64 8 13.28 8 16 8 C16 10.64 16 13.28 16 16 C18.64 16 21.28 16 24 16 C24 18.64 24 21.28 24 24 C26.64 24 29.28 24 32 24 C32 26.64 32 29.28 32 32 C29.36 32 26.72 32 24 32 C24 34.64 24 37.28 24 40 C21.36 40 18.72 40 16 40 C16 42.64 16 45.28 16 48 C13.36 48 10.72 48 8 48 C8 50.64 8 53.28 8 56 C5.36 56 2.72 56 0 56 C0 58.64 0 61.28 0 64 C-2.64 64 -5.28 64 -8 64 C-8 66.64 -8 69.28 -8 72 C-10.64 72 -13.28 72 -16 72 C-16 74.64 -16 77.28 -16 80 C-18.64 80 -21.28 80 -24 80 C-24 82.64 -24 85.28 -24 88 C-31.92 88 -39.84 88 -48 88 C-48 85.36 -48 82.72 -48 80 C-50.64 80 -53.28 80 -56 80 C-56 81.32 -56 82.64 -56 84 C-57.87171875 83.36771484 -57.87171875 83.36771484 -59.78125 82.72265625 C-63.3929354 81.51758175 -67.01725913 80.36592626 -70.65625 79.24609375 C-71.6153125 78.94896484 -72.574375 78.65183594 -73.5625 78.34570312 C-75.55046608 77.73107266 -77.54011021 77.121848 -79.53125 76.51757812 C-80.954375 76.07381836 -80.954375 76.07381836 -82.40625 75.62109375 C-83.26541016 75.3573999 -84.12457031 75.09370605 -85.00976562 74.82202148 C-87 74 -87 74 -88 72 C-85.36 72 -82.72 72 -80 72 C-80 69.36 -80 66.72 -80 64 C-77.36 64 -74.72 64 -72 64 C-72 61.36 -72 58.72 -72 56 C-69.36 56 -66.72 56 -64 56 C-64 53.36 -64 50.72 -64 48 C-61.36 48 -58.72 48 -56 48 C-56 45.36 -56 42.72 -56 40 C-53.36 40 -50.72 40 -48 40 C-48 37.36 -48 34.72 -48 32 C-45.36 32 -42.72 32 -40 32 C-40 26.72 -40 21.44 -40 16 C-34.72 16 -29.44 16 -24 16 C-24 18.64 -24 21.28 -24 24 C-21.36 24 -18.72 24 -16 24 C-16 21.36 -16 18.72 -16 16 C-13.36 16 -10.72 16 -8 16 C-8 13.36 -8 10.72 -8 8 C-5.36 8 -2.72 8 0 8 C0 5.36 0 2.72 0 0 Z " fill="#80599B" transform="translate(398,56)"/>
<path d="M0 0 C2.64 0 5.28 0 8 0 C8 2.64 8 5.28 8 8 C13.28 8 18.56 8 24 8 C24 10.64 24 13.28 24 16 C29.28 16 34.56 16 40 16 C40 18.64 40 21.28 40 24 C50.56 24 61.12 24 72 24 C72 26.64 72 29.28 72 32 C93.12 32 114.24 32 136 32 C136 42.56 136 53.12 136 64 C133.36 64 130.72 64 128 64 C128 65.98 128 67.96 128 70 C112.16 70 96.32 70 80 70 C80 60.1 80 50.2 80 40 C74.72 40 69.44 40 64 40 C64 37.36 64 34.72 64 32 C56.08 32 48.16 32 40 32 C40 37.28 40 42.56 40 48 C37.36 48 34.72 48 32 48 C32 50.64 32 53.28 32 56 C24.08 56 16.16 56 8 56 C8 53.36 8 50.72 8 48 C2.72 48 -2.56 48 -8 48 C-8 42.72 -8 37.44 -8 32 C-5.36 32 -2.72 32 0 32 C0 21.44 0 10.88 0 0 Z " fill="#000000" transform="translate(134,416)"/>
<path d="M0 0 C2.64 0 5.28 0 8 0 C8 7.92 8 15.84 8 24 C10.64 24 13.28 24 16 24 C16 31.92 16 39.84 16 48 C18.64 48 21.28 48 24 48 C24 50.64 24 53.28 24 56 C26.64 56 29.28 56 32 56 C32 58.64 32 61.28 32 64 C34.64 64 37.28 64 40 64 C40 69.28 40 74.56 40 80 C42.64 80 45.28 80 48 80 C48 82.64 48 85.28 48 88 C50.64 88 53.28 88 56 88 C56 90.64 56 93.28 56 96 C58.64 96 61.28 96 64 96 C64 98.64 64 101.28 64 104 C66.64 104 69.28 104 72 104 C72 106.64 72 109.28 72 112 C74.64 112 77.28 112 80 112 C80 117.28 80 122.56 80 128 C77.36 128 74.72 128 72 128 C72 125.36 72 122.72 72 120 C69.36 120 66.72 120 64 120 C64 122.64 64 125.28 64 128 C61.36 128 58.72 128 56 128 C56 130.64 56 133.28 56 136 C53.36 136 50.72 136 48 136 C48 138.64 48 141.28 48 144 C45.36 144 42.72 144 40 144 C40 141.36 40 138.72 40 136 C37.36 136 34.72 136 32 136 C32 133.36 32 130.72 32 128 C29.36 128 26.72 128 24 128 C24 125.36 24 122.72 24 120 C21.36 120 18.72 120 16 120 C16 117.36 16 114.72 16 112 C18.64 112 21.28 112 24 112 C24 109.36 24 106.72 24 104 C26.64 104 29.28 104 32 104 C32 101.36 32 98.72 32 96 C34.64 96 37.28 96 40 96 C40 93.36 40 90.72 40 88 C37.36 88 34.72 88 32 88 C32 82.72 32 77.44 32 72 C29.36 72 26.72 72 24 72 C24 69.36 24 66.72 24 64 C16.08 64 8.16 64 0 64 C0 66.64 0 69.28 0 72 C-5.28 72 -10.56 72 -16 72 C-16 66.72 -16 61.44 -16 56 C-18.64 56 -21.28 56 -24 56 C-24 48.08 -24 40.16 -24 32 C-21.36 32 -18.72 32 -16 32 C-16 29.36 -16 26.72 -16 24 C-10.72 24 -5.44 24 0 24 C0 16.08 0 8.16 0 0 Z " fill="#000000" transform="translate(38,288)"/>
<path d="M0 0 C15.84 0 31.68 0 48 0 C48 10.56 48 21.12 48 32 C50.64 32 53.28 32 56 32 C56 34.64 56 37.28 56 40 C40.16 40 24.32 40 8 40 C8 42.64 8 45.28 8 48 C5.36 48 2.72 48 0 48 C0 45.36 0 42.72 0 40 C-5.28 40 -10.56 40 -16 40 C-16 37.36 -16 34.72 -16 32 C-13.36 32 -10.72 32 -8 32 C-8 24.08 -8 16.16 -8 8 C-5.36 8 -2.72 8 0 8 C0 5.36 0 2.72 0 0 Z " fill="#000000" transform="translate(222,0)"/>
<path d="M0 0 C-2.22552258 1.15341698 -4.45495969 2.29781159 -6.6875 3.4375 C-7.31333984 3.76298828 -7.93917969 4.08847656 -8.58398438 4.42382812 C-12.03713639 6.17752313 -15.15193519 7.47760497 -19 8 C-18.505 8.7425 -18.505 8.7425 -18 9.5 C-16.56363642 13.09090894 -16.87148538 16.14456127 -17 20 C-19.31 20 -21.62 20 -24 20 C-24 22.64 -24 25.28 -24 28 C-29.28 28 -34.56 28 -40 28 C-40 30.64 -40 33.28 -40 36 C-61.12 36 -82.24 36 -104 36 C-104 33.36 -104 30.72 -104 28 C-109.28 28 -114.56 28 -120 28 C-120 25.36 -120 22.72 -120 20 C-124.29 20 -128.58 20 -133 20 C-132 16 -132 16 -131 14 C-131.66 14 -132.32 14 -133 14 C-132.34 12.02 -131.68 10.04 -131 8 C-133.31 7.34 -135.62 6.68 -138 6 C-138 5.34 -138 4.68 -138 4 C-132.29852267 4.5759068 -127.15875833 5.71646738 -121.6875 7.375 C-82.94976742 18.33918307 -42.14505233 14.5411208 -5.03125 -0.43359375 C-3 -1 -3 -1 0 0 Z " fill="#040306" transform="translate(318,316)"/>
<path d="M0 0 C2.64 0 5.28 0 8 0 C8 21.12 8 42.24 8 64 C-4.54 64 -17.08 64 -30 64 C-30 48.16 -30 32.32 -30 16 C-28.02 16 -26.04 16 -24 16 C-24 13.36 -24 10.72 -24 8 C-16.08 8 -8.16 8 0 8 C0 5.36 0 2.72 0 0 Z " fill="#000000" transform="translate(30,208)"/>
<path d="M0 0 C2.98090512 2.25667113 5.53326623 4.31829162 7.21875 7.6796875 C7.66747172 11.19309854 7.37967306 14.54037716 7.03125 18.0546875 C6.96099609 18.98152344 6.89074219 19.90835938 6.81835938 20.86328125 C6.64244016 23.13850304 6.44202594 25.40870681 6.21875 27.6796875 C7.86875 27.6796875 9.51875 27.6796875 11.21875 27.6796875 C10.76965939 29.16168652 10.30918436 30.64023986 9.84375 32.1171875 C9.58851563 32.94089844 9.33328125 33.76460938 9.0703125 34.61328125 C8.21875 36.6796875 8.21875 36.6796875 6.21875 37.6796875 C6.21875 37.0196875 6.21875 36.3596875 6.21875 35.6796875 C3.57875 35.6796875 0.93875 35.6796875 -1.78125 35.6796875 C-1.78125 38.3196875 -1.78125 40.9596875 -1.78125 43.6796875 C-4.42125 43.6796875 -7.06125 43.6796875 -9.78125 43.6796875 C-9.78125 45.6596875 -9.78125 47.6396875 -9.78125 49.6796875 C-17.95475078 50.29397983 -24.19129372 49.26275613 -30.7578125 44.13671875 C-37.35295448 38.00463993 -40.39496344 31.47367359 -40.8671875 22.4765625 C-40.6144241 14.25026275 -37.72354402 8.46262057 -32.00390625 2.59765625 C-22.72973875 -5.40518425 -10.63268903 -5.57123774 0 0 Z " fill="#020103" transform="translate(207.78125,228.3203125)"/>
<path d="M0 0 C7.92 0 15.84 0 24 0 C24 2.64 24 5.28 24 8 C29.28 8 34.56 8 40 8 C40 13.28 40 18.56 40 24 C37.36 24 34.72 24 32 24 C32 31.92 32 39.84 32 48 C24.08 48 16.16 48 8 48 C8 50.64 8 53.28 8 56 C5.36 56 2.72 56 0 56 C0 58.64 0 61.28 0 64 C-2.64 64 -5.28 64 -8 64 C-8 66.64 -8 69.28 -8 72 C-10.64 72 -13.28 72 -16 72 C-16 74.64 -16 77.28 -16 80 C-18.64 80 -21.28 80 -24 80 C-24 82.64 -24 85.28 -24 88 C-26.64 88 -29.28 88 -32 88 C-32 90.64 -32 93.28 -32 96 C-34.64 96 -37.28 96 -40 96 C-40 90.72 -40 85.44 -40 80 C-37.36 80 -34.72 80 -32 80 C-32 77.36 -32 74.72 -32 72 C-29.36 72 -26.72 72 -24 72 C-24 69.36 -24 66.72 -24 64 C-21.36 64 -18.72 64 -16 64 C-16 61.36 -16 58.72 -16 56 C-13.36 56 -10.72 56 -8 56 C-8 53.36 -8 50.72 -8 48 C-5.36 48 -2.72 48 0 48 C0 42.72 0 37.44 0 32 C5.28 32 10.56 32 16 32 C16 29.36 16 26.72 16 24 C18.64 24 21.28 24 24 24 C24 21.36 24 18.72 24 16 C18.72 16 13.44 16 8 16 C8 13.36 8 10.72 8 8 C5.36 8 2.72 8 0 8 C0 5.36 0 2.72 0 0 Z " fill="#80599B" transform="translate(318,16)"/>
<path d="M0 0 C3.99966145 2.84938287 7.24621149 6.48338101 10.078125 10.48046875 C10.078125 11.14046875 10.078125 11.80046875 10.078125 12.48046875 C5.458125 12.48046875 0.838125 12.48046875 -3.921875 12.48046875 C-3.921875 15.12046875 -3.921875 17.76046875 -3.921875 20.48046875 C-6.561875 20.48046875 -9.201875 20.48046875 -11.921875 20.48046875 C-11.921875 23.12046875 -11.921875 25.76046875 -11.921875 28.48046875 C-14.561875 28.48046875 -17.201875 28.48046875 -19.921875 28.48046875 C-19.921875 31.12046875 -19.921875 33.76046875 -19.921875 36.48046875 C-14.641875 36.48046875 -9.361875 36.48046875 -3.921875 36.48046875 C-3.921875 33.84046875 -3.921875 31.20046875 -3.921875 28.48046875 C-1.281875 28.48046875 1.358125 28.48046875 4.078125 28.48046875 C4.078125 25.84046875 4.078125 23.20046875 4.078125 20.48046875 C7.048125 20.15046875 10.018125 19.82046875 13.078125 19.48046875 C13.68403257 27.50874406 11.77763493 35.34560485 6.828125 41.85546875 C-0.11821205 48.4860632 -6.42971113 50.93498073 -15.97265625 50.8203125 C-22.44978753 50.07394108 -27.88003992 46.9793967 -32.296875 42.23046875 C-37.14251255 35.90231319 -39.3485504 29.36368205 -39.921875 21.48046875 C-38.601875 21.15046875 -37.281875 20.82046875 -35.921875 20.48046875 C-36.09847656 19.94679687 -36.27507812 19.413125 -36.45703125 18.86328125 C-37.41110667 14.778425 -37.51874629 12.44756917 -35.265625 8.796875 C-25.92842159 -1.96329262 -13.68900021 -7.02195011 0 0 Z " fill="#020102" transform="translate(305.921875,227.51953125)"/>
<path d="M0 0 C5.28 0 10.56 0 16 0 C16 7.92 16 15.84 16 24 C13.36 24 10.72 24 8 24 C8 26.64 8 29.28 8 32 C5.36 32 2.72 32 0 32 C0 34.64 0 37.28 0 40 C-2.64 40 -5.28 40 -8 40 C-8 42.64 -8 45.28 -8 48 C-10.64 48 -13.28 48 -16 48 C-16 50.64 -16 53.28 -16 56 C-18.64 56 -21.28 56 -24 56 C-24 58.64 -24 61.28 -24 64 C-26.31 64 -28.62 64 -31 64 C-33.17010243 60.18944575 -35.33550475 56.37624164 -37.5 52.5625 C-38.12003906 51.47388672 -38.74007813 50.38527344 -39.37890625 49.26367188 C-39.96542969 48.22919922 -40.55195313 47.19472656 -41.15625 46.12890625 C-41.97319336 44.69140015 -41.97319336 44.69140015 -42.80664062 43.22485352 C-44 41 -44 41 -44 40 C-40.04 40 -36.08 40 -32 40 C-32 37.36 -32 34.72 -32 32 C-29.36 32 -26.72 32 -24 32 C-24 29.36 -24 26.72 -24 24 C-21.36 24 -18.72 24 -16 24 C-16 21.36 -16 18.72 -16 16 C-13.36 16 -10.72 16 -8 16 C-8 13.36 -8 10.72 -8 8 C-5.36 8 -2.72 8 0 8 C0 5.36 0 2.72 0 0 Z " fill="#000000" transform="translate(398,112)"/>
<path d="M0 0 C7.92 0 15.84 0 24 0 C24 2.64 24 5.28 24 8 C45.12 8 66.24 8 88 8 C88 10.64 88 13.28 88 16 C82.72 16 77.44 16 72 16 C72 18.64 72 21.28 72 24 C66.72 24 61.44 24 56 24 C56 26.64 56 29.28 56 32 C45.44 32 34.88 32 24 32 C24 29.36 24 26.72 24 24 C21.36 24 18.72 24 16 24 C16 21.36 16 18.72 16 16 C10.72 16 5.44 16 0 16 C0 10.72 0 5.44 0 0 Z " fill="#423167" transform="translate(190,344)"/>
<path d="M0 0 C2.64 0 5.28 0 8 0 C8 2.64 8 5.28 8 8 C10.64 8 13.28 8 16 8 C16 13.28 16 18.56 16 24 C13.36 24 10.72 24 8 24 C8 26.64 8 29.28 8 32 C5.36 32 2.72 32 0 32 C0 34.64 0 37.28 0 40 C-2.64 40 -5.28 40 -8 40 C-8 42.64 -8 45.28 -8 48 C-10.64 48 -13.28 48 -16 48 C-16 50.64 -16 53.28 -16 56 C-18.64 56 -21.28 56 -24 56 C-24 58.64 -24 61.28 -24 64 C-26.64 64 -29.28 64 -32 64 C-32.33 64.99 -32.66 65.98 -33 67 C-34.18873496 64.00829014 -35.34675881 61.00555136 -36.5 58 C-36.83386719 57.16082031 -37.16773438 56.32164062 -37.51171875 55.45703125 C-39.57121771 50.035085 -40.37578453 45.79781841 -40 40 C-37.36 40 -34.72 40 -32 40 C-32 37.36 -32 34.72 -32 32 C-29.36 32 -26.72 32 -24 32 C-24 29.36 -24 26.72 -24 24 C-21.36 24 -18.72 24 -16 24 C-16 21.36 -16 18.72 -16 16 C-13.36 16 -10.72 16 -8 16 C-8 13.36 -8 10.72 -8 8 C-5.36 8 -2.72 8 0 8 C0 5.36 0 2.72 0 0 Z " fill="#000000" transform="translate(414,144)"/>
<path d="M0 0 C5.28 0 10.56 0 16 0 C16 2.64 16 5.28 16 8 C18.64 8 21.28 8 24 8 C24 10.64 24 13.28 24 16 C26.64 16 29.28 16 32 16 C32 21.28 32 26.56 32 32 C29.36 32 26.72 32 24 32 C24 34.64 24 37.28 24 40 C21.36 40 18.72 40 16 40 C16 42.64 16 45.28 16 48 C13.36 48 10.72 48 8 48 C8 45.36 8 42.72 8 40 C5.36 40 2.72 40 0 40 C0 37.36 0 34.72 0 32 C-2.64 32 -5.28 32 -8 32 C-8 29.36 -8 26.72 -8 24 C-10.64 24 -13.28 24 -16 24 C-16 21.36 -16 18.72 -16 16 C-13.36 16 -10.72 16 -8 16 C-8 13.36 -8 10.72 -8 8 C-5.36 8 -2.72 8 0 8 C0 5.36 0 2.72 0 0 Z " fill="#000000" transform="translate(70,384)"/>
<path d="M0 0 C2.64 0 5.28 0 8 0 C8 2.64 8 5.28 8 8 C10.64 8 13.28 8 16 8 C16 10.64 16 13.28 16 16 C18.64 16 21.28 16 24 16 C24 18.64 24 21.28 24 24 C26.64 24 29.28 24 32 24 C32 26.64 32 29.28 32 32 C29.36 32 26.72 32 24 32 C24 34.64 24 37.28 24 40 C21.36 40 18.72 40 16 40 C16 37.36 16 34.72 16 32 C13.36 32 10.72 32 8 32 C8 34.64 8 37.28 8 40 C5.36 40 2.72 40 0 40 C0 42.64 0 45.28 0 48 C-2.64 48 -5.28 48 -8 48 C-8 50.64 -8 53.28 -8 56 C-13.28 56 -18.56 56 -24 56 C-24 50.72 -24 45.44 -24 40 C-21.36 40 -18.72 40 -16 40 C-16 37.36 -16 34.72 -16 32 C-13.36 32 -10.72 32 -8 32 C-8 29.36 -8 26.72 -8 24 C-5.36 24 -2.72 24 0 24 C0 21.36 0 18.72 0 16 C-2.64 16 -5.28 16 -8 16 C-8 13.36 -8 10.72 -8 8 C-5.36 8 -2.72 8 0 8 C0 5.36 0 2.72 0 0 Z " fill="#B988D0" transform="translate(398,56)"/>
<path d="M0 0 C5.28 0 10.56 0 16 0 C16 13.2 16 26.4 16 40 C13.36 40 10.72 40 8 40 C8 34.72 8 29.44 8 24 C5.36 24 2.72 24 0 24 C0 26.64 0 29.28 0 32 C-2.64 32 -5.28 32 -8 32 C-8 34.64 -8 37.28 -8 40 C-10.64 40 -13.28 40 -16 40 C-16 42.64 -16 45.28 -16 48 C-18.64 48 -21.28 48 -24 48 C-24 50.64 -24 53.28 -24 56 C-26.64 56 -29.28 56 -32 56 C-32 58.64 -32 61.28 -32 64 C-34.64 64 -37.28 64 -40 64 C-40 66.64 -40 69.28 -40 72 C-41.32 72 -42.64 72 -44 72 C-44.495 72.99 -44.495 72.99 -45 74 C-45.69784331 71.565036 -46.38353822 69.12772895 -47.0625 66.6875 C-47.36124023 65.65206055 -47.36124023 65.65206055 -47.66601562 64.59570312 C-49.11328125 59.33984375 -49.11328125 59.33984375 -48 56 C-45.36 56 -42.72 56 -40 56 C-40 53.36 -40 50.72 -40 48 C-37.36 48 -34.72 48 -32 48 C-32 45.36 -32 42.72 -32 40 C-29.36 40 -26.72 40 -24 40 C-24 37.36 -24 34.72 -24 32 C-21.36 32 -18.72 32 -16 32 C-16 29.36 -16 26.72 -16 24 C-13.36 24 -10.72 24 -8 24 C-8 21.36 -8 18.72 -8 16 C-5.36 16 -2.72 16 0 16 C0 10.72 0 5.44 0 0 Z " fill="#80599B" transform="translate(430,152)"/>
<path d="M0 0 C15.84 0 31.68 0 48 0 C48 7.92 48 15.84 48 24 C45.36 24 42.72 24 40 24 C40 25.98 40 27.96 40 30 C34.72 30 29.44 30 24 30 C24 28.02 24 26.04 24 24 C16.08 24 8.16 24 0 24 C0 16.08 0 8.16 0 0 Z " fill="#000000" transform="translate(222,456)"/>
<path d="M0 0 C10.56 0 21.12 0 32 0 C32 2.64 32 5.28 32 8 C53.12 8 74.24 8 96 8 C96 10.64 96 13.28 96 16 C80.16 16 64.32 16 48 16 C48 23.92 48 31.84 48 40 C55.92 40 63.84 40 72 40 C72 41.98 72 43.96 72 46 C61.44 46 50.88 46 40 46 C40 36.1 40 26.2 40 16 C34.72 16 29.44 16 24 16 C24 13.36 24 10.72 24 8 C16.08 8 8.16 8 0 8 C0 5.36 0 2.72 0 0 Z " fill="#F9CDFF" transform="translate(174,440)"/>
<path d="M0 0 C5.28 0 10.56 0 16 0 C16 2.64 16 5.28 16 8 C18.64 8 21.28 8 24 8 C24 18.56 24 29.12 24 40 C13.44 40 2.88 40 -8 40 C-8 29.44 -8 18.88 -8 8 C-5.36 8 -2.72 8 0 8 C0 5.36 0 2.72 0 0 Z " fill="#000000" transform="translate(462,224)"/>
<path d="M0 0 C2.64 0 5.28 0 8 0 C8 7.92 8 15.84 8 24 C13.28 24 18.56 24 24 24 C24 21.36 24 18.72 24 16 C26.64 16 29.28 16 32 16 C32 13.36 32 10.72 32 8 C34.64 8 37.28 8 40 8 C40 5.36 40 2.72 40 0 C42.64 0 45.28 0 48 0 C48 5.28 48 10.56 48 16 C45.36 16 42.72 16 40 16 C40 18.64 40 21.28 40 24 C37.36 24 34.72 24 32 24 C32 26.64 32 29.28 32 32 C29.36 32 26.72 32 24 32 C24 34.64 24 37.28 24 40 C21.36 40 18.72 40 16 40 C16 42.64 16 45.28 16 48 C13.36 48 10.72 48 8 48 C8 42.72 8 37.44 8 32 C5.36 32 2.72 32 0 32 C0 29.36 0 26.72 0 24 C-5.28 24 -10.56 24 -16 24 C-16 21.36 -16 18.72 -16 16 C-13.36 16 -10.72 16 -8 16 C-8 13.36 -8 10.72 -8 8 C-5.36 8 -2.72 8 0 8 C0 5.36 0 2.72 0 0 Z " fill="#80599B" transform="translate(366,88)"/>
<path d="M0 0 C7.92 0 15.84 0 24 0 C24 2.64 24 5.28 24 8 C26.64 8 29.28 8 32 8 C32 15.92 32 23.84 32 32 C24.08 32 16.16 32 8 32 C8 29.36 8 26.72 8 24 C2.72 24 -2.56 24 -8 24 C-8 18.72 -8 13.44 -8 8 C-5.36 8 -2.72 8 0 8 C0 5.36 0 2.72 0 0 Z " fill="#80599B" transform="translate(342,112)"/>
<path d="M0 0 C2.64 0 5.28 0 8 0 C8 21.12 8 42.24 8 64 C-4.54 64 -17.08 64 -30 64 C-30 48.16 -30 32.32 -30 16 C-28.02 16 -26.04 16 -24 16 C-24 29.2 -24 42.4 -24 56 C-16.08 56 -8.16 56 0 56 C0 37.52 0 19.04 0 0 Z " fill="#F9CDFF" transform="translate(30,208)"/>
<path d="M0 0 C2.64 0 5.28 0 8 0 C8 5.28 8 10.56 8 16 C18.56 16 29.12 16 40 16 C40 21.28 40 26.56 40 32 C37.36 32 34.72 32 32 32 C32 29.36 32 26.72 32 24 C26.72 24 21.44 24 16 24 C16 26.64 16 29.28 16 32 C13.36 32 10.72 32 8 32 C8 42.56 8 53.12 8 64 C5.36 64 2.72 64 0 64 C0 58.72 0 53.44 0 48 C-2.64 48 -5.28 48 -8 48 C-8 45.36 -8 42.72 -8 40 C-5.36 40 -2.72 40 0 40 C0 26.8 0 13.6 0 0 Z " fill="#80599B" transform="translate(446,200)"/>
<path d="M0 0 C2.64 0 5.28 0 8 0 C8 7.92 8 15.84 8 24 C13.28 24 18.56 24 24 24 C24 21.36 24 18.72 24 16 C26.64 16 29.28 16 32 16 C32 18.64 32 21.28 32 24 C42.56 24 53.12 24 64 24 C64 26.64 64 29.28 64 32 C48.16 32 32.32 32 16 32 C16 34.64 16 37.28 16 40 C13.36 40 10.72 40 8 40 C8 37.36 8 34.72 8 32 C2.72 32 -2.56 32 -8 32 C-8 29.36 -8 26.72 -8 24 C-5.36 24 -2.72 24 0 24 C0 16.08 0 8.16 0 0 Z " fill="#80599B" transform="translate(214,8)"/>
<path d="M0 0 C2.64 0 5.28 0 8 0 C8 5.28 8 10.56 8 16 C13.28 16 18.56 16 24 16 C24 13.36 24 10.72 24 8 C26.64 8 29.28 8 32 8 C32 5.36 32 2.72 32 0 C34.64 0 37.28 0 40 0 C40 5.28 40 10.56 40 16 C37.36 16 34.72 16 32 16 C32 26.56 32 37.12 32 48 C29.36 48 26.72 48 24 48 C24 42.72 24 37.44 24 32 C21.36 32 18.72 32 16 32 C16 29.36 16 26.72 16 24 C10.72 24 5.44 24 0 24 C0 16.08 0 8.16 0 0 Z " fill="#F9CDFF" transform="translate(14,152)"/>
<path d="M0 0 C5.28 0 10.56 0 16 0 C16 2.64 16 5.28 16 8 C18.64 8 21.28 8 24 8 C24 10.64 24 13.28 24 16 C26.64 16 29.28 16 32 16 C32 18.64 32 21.28 32 24 C34.64 24 37.28 24 40 24 C40 26.64 40 29.28 40 32 C42.64 32 45.28 32 48 32 C48 37.28 48 42.56 48 48 C45.36 48 42.72 48 40 48 C40 45.36 40 42.72 40 40 C37.36 40 34.72 40 32 40 C32 37.36 32 34.72 32 32 C29.36 32 26.72 32 24 32 C24 29.36 24 26.72 24 24 C21.36 24 18.72 24 16 24 C16 21.36 16 18.72 16 16 C13.36 16 10.72 16 8 16 C8 13.36 8 10.72 8 8 C5.36 8 2.72 8 0 8 C0 5.36 0 2.72 0 0 Z " fill="#F9CDFF" transform="translate(70,368)"/>
<path d="M0 0 C7.92 0 15.84 0 24 0 C24 2.64 24 5.28 24 8 C29.28 8 34.56 8 40 8 C40 10.64 40 13.28 40 16 C37.36 16 34.72 16 32 16 C32 18.64 32 21.28 32 24 C26.72 24 21.44 24 16 24 C16 21.36 16 18.72 16 16 C10.72 16 5.44 16 0 16 C0 10.72 0 5.44 0 0 Z " fill="#F9CDFF" transform="translate(190,344)"/>
<path d="M0 0 C18.48 0 36.96 0 56 0 C56 3.3 56 6.6 56 10 C54 12 54 12 51.93823242 12.07519531 C50.6597644 11.95289551 50.6597644 11.95289551 49.35546875 11.828125 C48.38150146 11.74159668 47.40753418 11.65506836 46.40405273 11.56591797 C45.34259033 11.46166504 44.28112793 11.35741211 43.1875 11.25 C40.93244728 11.04773668 38.67723066 10.84729442 36.421875 10.6484375 C35.22498047 10.54112305 34.02808594 10.43380859 32.79492188 10.32324219 C26.18140262 9.75991875 19.55985166 9.32018631 12.9375 8.875 C11.01103638 8.74399902 11.01103638 8.74399902 9.0456543 8.61035156 C6.03052159 8.40560129 3.0153096 8.20212551 0 8 C0 5.36 0 2.72 0 0 Z " fill="#80599B" transform="translate(222,128)"/>
<path d="M0 0 C7.92 0 15.84 0 24 0 C24 2.64 24 5.28 24 8 C29.28 8 34.56 8 40 8 C40 13.28 40 18.56 40 24 C37.36 24 34.72 24 32 24 C32 21.36 32 18.72 32 16 C24.08 16 16.16 16 8 16 C8 13.36 8 10.72 8 8 C5.36 8 2.72 8 0 8 C0 5.36 0 2.72 0 0 Z " fill="#80599B" transform="translate(318,16)"/>
<path d="M0 0 C2.64 0 5.28 0 8 0 C8 2.64 8 5.28 8 8 C13.28 8 18.56 8 24 8 C24 10.64 24 13.28 24 16 C26.64 16 29.28 16 32 16 C32 18.64 32 21.28 32 24 C26.72 24 21.44 24 16 24 C16 21.36 16 18.72 16 16 C13.36 16 10.72 16 8 16 C8 18.64 8 21.28 8 24 C5.36 24 2.72 24 0 24 C0 16.08 0 8.16 0 0 Z " fill="#F9CDFF" transform="translate(134,416)"/>
<path d="M0 0 C5.28 0 10.56 0 16 0 C16 2.64 16 5.28 16 8 C18.64 8 21.28 8 24 8 C24 10.64 24 13.28 24 16 C26.64 16 29.28 16 32 16 C32 21.28 32 26.56 32 32 C29.36 32 26.72 32 24 32 C24 29.36 24 26.72 24 24 C21.36 24 18.72 24 16 24 C16 21.36 16 18.72 16 16 C13.36 16 10.72 16 8 16 C8 13.36 8 10.72 8 8 C5.36 8 2.72 8 0 8 C0 5.36 0 2.72 0 0 Z " fill="#F9CDFF" transform="translate(54,400)"/>
<path d="M0 0 C10.56 0 21.12 0 32 0 C32 2.64 32 5.28 32 8 C26.72 8 21.44 8 16 8 C16 10.64 16 13.28 16 16 C8.08 16 0.16 16 -8 16 C-8 13.36 -8 10.72 -8 8 C-5.36 8 -2.72 8 0 8 C0 5.36 0 2.72 0 0 Z " fill="#F9CDFF" transform="translate(246,352)"/>
<path d="M0 0 C2.64 0 5.28 0 8 0 C8 2.64 8 5.28 8 8 C10.64 8 13.28 8 16 8 C16 10.64 16 13.28 16 16 C18.64 16 21.28 16 24 16 C24 21.28 24 26.56 24 32 C21.36 32 18.72 32 16 32 C16 29.36 16 26.72 16 24 C13.36 24 10.72 24 8 24 C8 21.36 8 18.72 8 16 C2.72 16 -2.56 16 -8 16 C-8 13.36 -8 10.72 -8 8 C-5.36 8 -2.72 8 0 8 C0 5.36 0 2.72 0 0 Z " fill="#5B3C89" transform="translate(54,336)"/>
<path d="M0 0 C2.64 0 5.28 0 8 0 C8 5.28 8 10.56 8 16 C10.64 16 13.28 16 16 16 C16 21.28 16 26.56 16 32 C18.64 32 21.28 32 24 32 C24 34.64 24 37.28 24 40 C18.72 40 13.44 40 8 40 C8 34.72 8 29.44 8 24 C5.36 24 2.72 24 0 24 C0 16.08 0 8.16 0 0 Z " fill="#F9CDFF" transform="translate(14,320)"/>
<path d="M0 0 C2.64 0 5.28 0 8 0 C8 7.92 8 15.84 8 24 C10.64 24 13.28 24 16 24 C16 31.92 16 39.84 16 48 C13.36 48 10.72 48 8 48 C8 42.72 8 37.44 8 32 C5.36 32 2.72 32 0 32 C0 21.44 0 10.88 0 0 Z " fill="#F9CDFF" transform="translate(38,288)"/>
<path d="M0 0 C2.64 0 5.28 0 8 0 C8 5.28 8 10.56 8 16 C10.64 16 13.28 16 16 16 C16 18.64 16 21.28 16 24 C21.28 24 26.56 24 32 24 C32 26.64 32 29.28 32 32 C24.08 32 16.16 32 8 32 C8 29.36 8 26.72 8 24 C5.36 24 2.72 24 0 24 C0 16.08 0 8.16 0 0 Z " fill="#5B3C89" transform="translate(62,232)"/>
<path d="M0 0 C4.95 0 9.9 0 15 0 C15.33 1.65 15.66 3.3 16 5 C16.66 5 17.32 5 18 5 C18 7.31 18 9.62 18 12 C17.34 10.68 16.68 9.36 16 8 C13.36 8 10.72 8 8 8 C8 10.64 8 13.28 8 16 C5.36 16 2.72 16 0 16 C0 18.64 0 21.28 0 24 C-5.28 24 -10.56 24 -16 24 C-16 21.36 -16 18.72 -16 16 C-13.36 16 -10.72 16 -8 16 C-8 13.36 -8 10.72 -8 8 C-5.36 8 -2.72 8 0 8 C0 5.36 0 2.72 0 0 Z " fill="#7F589A" transform="translate(302,240)"/>
<path d="M0 0 C2.64 0 5.28 0 8 0 C8 2.64 8 5.28 8 8 C10.64 8 13.28 8 16 8 C16 10.64 16 13.28 16 16 C18.64 16 21.28 16 24 16 C24 21.28 24 26.56 24 32 C21.36 32 18.72 32 16 32 C16 29.36 16 26.72 16 24 C13.36 24 10.72 24 8 24 C8 21.36 8 18.72 8 16 C5.36 16 2.72 16 0 16 C0 10.72 0 5.44 0 0 Z " fill="#F9CDFF" transform="translate(374,400)"/>
<path d="M0 0 C5.28 0 10.56 0 16 0 C16 5.28 16 10.56 16 16 C13.36 16 10.72 16 8 16 C8 18.64 8 21.28 8 24 C5.36 24 2.72 24 0 24 C0 21.36 0 18.72 0 16 C-2.64 16 -5.28 16 -8 16 C-8 13.36 -8 10.72 -8 8 C-5.36 8 -2.72 8 0 8 C0 5.36 0 2.72 0 0 Z " fill="#000000" transform="translate(86,400)"/>
<path d="M0 0 C2.64 0 5.28 0 8 0 C8 2.64 8 5.28 8 8 C10.64 8 13.28 8 16 8 C16 10.64 16 13.28 16 16 C21.28 16 26.56 16 32 16 C32 18.64 32 21.28 32 24 C24.08 24 16.16 24 8 24 C8 21.36 8 18.72 8 16 C5.36 16 2.72 16 0 16 C0 10.72 0 5.44 0 0 Z " fill="#5B3C89" transform="translate(334,352)"/>
<path d="M0 0 C2.64 0 5.28 0 8 0 C8 2.64 8 5.28 8 8 C10.64 8 13.28 8 16 8 C16 10.64 16 13.28 16 16 C18.64 16 21.28 16 24 16 C24 18.64 24 21.28 24 24 C16.08 24 8.16 24 0 24 C0 16.08 0 8.16 0 0 Z " fill="#423167" transform="translate(110,352)"/>
<path d="M0 0 C2.64 0 5.28 0 8 0 C8 2.64 8 5.28 8 8 C10.64 8 13.28 8 16 8 C16 10.64 16 13.28 16 16 C21.28 16 26.56 16 32 16 C32 18.64 32 21.28 32 24 C24.08 24 16.16 24 8 24 C8 21.36 8 18.72 8 16 C5.36 16 2.72 16 0 16 C0 10.72 0 5.44 0 0 Z " fill="#423167" transform="translate(222,72)"/>
<path d="M0 0 C7.92 0 15.84 0 24 0 C24 7.92 24 15.84 24 24 C21.36 24 18.72 24 16 24 C16 21.36 16 18.72 16 16 C13.36 16 10.72 16 8 16 C8 13.36 8 10.72 8 8 C5.36 8 2.72 8 0 8 C0 5.36 0 2.72 0 0 Z " fill="#80599B" transform="translate(246,0)"/>
<path d="M0 0 C2.64 0 5.28 0 8 0 C8 7.92 8 15.84 8 24 C5.36 24 2.72 24 0 24 C0 21.36 0 18.72 0 16 C-5.28 16 -10.56 16 -16 16 C-16 13.36 -16 10.72 -16 8 C-10.72 8 -5.44 8 0 8 C0 5.36 0 2.72 0 0 Z " fill="#5B3C89" transform="translate(166,432)"/>
<path d="M0 0 C7.92 0 15.84 0 24 0 C24 2.64 24 5.28 24 8 C26.64 8 29.28 8 32 8 C32 10.64 32 13.28 32 16 C26.72 16 21.44 16 16 16 C16 13.36 16 10.72 16 8 C10.72 8 5.44 8 0 8 C0 5.36 0 2.72 0 0 Z " fill="#F9CDFF" transform="translate(422,344)"/>
<path d="M0 0 C2.64 0 5.28 0 8 0 C8 13.2 8 26.4 8 40 C5.36 40 2.72 40 0 40 C0 26.8 0 13.6 0 0 Z " fill="#423167" transform="translate(22,224)"/>
<path d="M0 0 C5.28 0 10.56 0 16 0 C16 5.28 16 10.56 16 16 C18.64 16 21.28 16 24 16 C24 18.64 24 21.28 24 24 C18.72 24 13.44 24 8 24 C8 18.72 8 13.44 8 8 C5.36 8 2.72 8 0 8 C0 5.36 0 2.72 0 0 Z " fill="#F9CDFF" transform="translate(126,40)"/>
<path d="M0 0 C5.28 0 10.56 0 16 0 C16 2.64 16 5.28 16 8 C13.36 8 10.72 8 8 8 C8 10.64 8 13.28 8 16 C5.36 16 2.72 16 0 16 C0 18.64 0 21.28 0 24 C-1.32 24 -2.64 24 -4 24 C-4.33 24.66 -4.66 25.32 -5 26 C-5.69784331 23.565036 -6.38353822 21.12772895 -7.0625 18.6875 C-7.36124023 17.65206055 -7.36124023 17.65206055 -7.66601562 16.59570312 C-9.11328125 11.33984375 -9.11328125 11.33984375 -8 8 C-5.36 8 -2.72 8 0 8 C0 5.36 0 2.72 0 0 Z " fill="#B988D0" transform="translate(390,200)"/>
<path d="M0 0 C0.33 0.66 0.66 1.32 1 2 C5.29 2 9.58 2 14 2 C14 4.64 14 7.28 14 10 C11.36 10 8.72 10 6 10 C6 15.28 6 20.56 6 26 C3.36 26 0.72 26 -2 26 C-2 23.36 -2 20.72 -2 18 C-4.64 18 -7.28 18 -10 18 C-9.52949219 17.20335937 -9.05898437 16.40671875 -8.57421875 15.5859375 C-7.95160156 14.52632813 -7.32898438 13.46671875 -6.6875 12.375 C-6.07261719 11.33085937 -5.45773438 10.28671875 -4.82421875 9.2109375 C-3.10568069 6.18601612 -1.52542858 3.12595518 0 0 Z " fill="#5A3B88" transform="translate(184,334)"/>
<path d="M0 0 C10.56 0 21.12 0 32 0 C32 2.64 32 5.28 32 8 C21.44 8 10.88 8 0 8 C0 5.36 0 2.72 0 0 Z " fill="#423167" transform="translate(222,456)"/>
<path d="M0 0 C5.28 0 10.56 0 16 0 C16 5.28 16 10.56 16 16 C10.72 16 5.44 16 0 16 C0 10.72 0 5.44 0 0 Z " fill="#F9CDFF" transform="translate(302,440)"/>
<path d="M0 0 C2.64 0 5.28 0 8 0 C8 5.28 8 10.56 8 16 C0.08 16 -7.84 16 -16 16 C-16 13.36 -16 10.72 -16 8 C-10.72 8 -5.44 8 0 8 C0 5.36 0 2.72 0 0 Z " fill="#423167" transform="translate(334,424)"/>
<path d="M0 0 C5.28 0 10.56 0 16 0 C16 2.64 16 5.28 16 8 C13.36 8 10.72 8 8 8 C8 10.64 8 13.28 8 16 C2.72 16 -2.56 16 -8 16 C-8 13.36 -8 10.72 -8 8 C-5.36 8 -2.72 8 0 8 C0 5.36 0 2.72 0 0 Z " fill="#5B3C89" transform="translate(230,352)"/>
<path d="M0 0 C2.64 0 5.28 0 8 0 C8 5.28 8 10.56 8 16 C5.36 16 2.72 16 0 16 C0 18.64 0 21.28 0 24 C-2.64 24 -5.28 24 -8 24 C-8 18.72 -8 13.44 -8 8 C-5.36 8 -2.72 8 0 8 C0 5.36 0 2.72 0 0 Z " fill="#5B3C89" transform="translate(46,152)"/>
<path d="M0 0 C5.28 0 10.56 0 16 0 C16 5.28 16 10.56 16 16 C10.72 16 5.44 16 0 16 C0 10.72 0 5.44 0 0 Z " fill="#000000" transform="translate(446,160)"/>
<path d="M0 0 C2.64 0 5.28 0 8 0 C8 5.28 8 10.56 8 16 C10.64 16 13.28 16 16 16 C16 18.64 16 21.28 16 24 C10.72 24 5.44 24 0 24 C0 16.08 0 8.16 0 0 Z " fill="#B988D0" transform="translate(454,128)"/>
<path d="M0 0 C10.56 0 21.12 0 32 0 C32 2.64 32 5.28 32 8 C21.44 8 10.88 8 0 8 C0 5.36 0 2.72 0 0 Z " fill="#80599B" transform="translate(286,40)"/>
<path d="M0 0 C2.64 0 5.28 0 8 0 C8 2.64 8 5.28 8 8 C10.64 8 13.28 8 16 8 C16 10.64 16 13.28 16 16 C8.08 16 0.16 16 -8 16 C-8 13.36 -8 10.72 -8 8 C-5.36 8 -2.72 8 0 8 C0 5.36 0 2.72 0 0 Z " fill="#000000" transform="translate(254,16)"/>
<path d="M0 0 C2.31 0 4.62 0 7 0 C7 2.64 7 5.28 7 8 C12.28 8 17.56 8 23 8 C23 10.64 23 13.28 23 16 C16.07 16 9.14 16 2 16 C-1.63636364 3.27272727 -1.63636364 3.27272727 0 0 Z " fill="#5C3D89" transform="translate(391,248)"/>
<path d="M0 0 C2.64 0 5.28 0 8 0 C8 2.64 8 5.28 8 8 C10.64 8 13.28 8 16 8 C16 10.64 16 13.28 16 16 C10.72 16 5.44 16 0 16 C0 10.72 0 5.44 0 0 Z " fill="#F9CDFF" transform="translate(126,448)"/>
<path d="M0 0 C2.64 0 5.28 0 8 0 C8 2.64 8 5.28 8 8 C10.64 8 13.28 8 16 8 C16 10.64 16 13.28 16 16 C10.72 16 5.44 16 0 16 C0 10.72 0 5.44 0 0 Z " fill="#423167" transform="translate(222,400)"/>
<path d="M0 0 C5.28 0 10.56 0 16 0 C16 5.28 16 10.56 16 16 C13.36 16 10.72 16 8 16 C8 13.36 8 10.72 8 8 C5.36 8 2.72 8 0 8 C0 5.36 0 2.72 0 0 Z " fill="#5B3C89" transform="translate(118,408)"/>
<path d="M0 0 C2.64 0 5.28 0 8 0 C8 2.64 8 5.28 8 8 C10.64 8 13.28 8 16 8 C16 10.64 16 13.28 16 16 C10.72 16 5.44 16 0 16 C0 10.72 0 5.44 0 0 Z " fill="#423167" transform="translate(334,352)"/>
<path d="M0 0 C2.64 0 5.28 0 8 0 C8 2.64 8 5.28 8 8 C10.64 8 13.28 8 16 8 C16 10.64 16 13.28 16 16 C10.72 16 5.44 16 0 16 C0 10.72 0 5.44 0 0 Z " fill="#423167" transform="translate(110,352)"/>
<path d="M0 0 C2.64 0 5.28 0 8 0 C8 2.64 8 5.28 8 8 C10.64 8 13.28 8 16 8 C16 10.64 16 13.28 16 16 C10.72 16 5.44 16 0 16 C0 10.72 0 5.44 0 0 Z " fill="#5B3C89" transform="translate(22,344)"/>
<path d="M0 0 C2.64 0 5.28 0 8 0 C8 5.28 8 10.56 8 16 C2.72 16 -2.56 16 -8 16 C-8 13.36 -8 10.72 -8 8 C-5.36 8 -2.72 8 0 8 C0 5.36 0 2.72 0 0 Z " fill="#F9CDFF" transform="translate(54,336)"/>
<path d="M0 0 C2.64 0 5.28 0 8 0 C8 2.64 8 5.28 8 8 C10.64 8 13.28 8 16 8 C16 10.64 16 13.28 16 16 C10.72 16 5.44 16 0 16 C0 10.72 0 5.44 0 0 Z " fill="#5B3C89" transform="translate(30,272)"/>
<path d="M0 0 C7.92 0 15.84 0 24 0 C24 2.64 24 5.28 24 8 C16.08 8 8.16 8 0 8 C0 5.36 0 2.72 0 0 Z " fill="#F9CDFF" transform="translate(454,264)"/>
<path d="M0 0 C1.98 0 3.96 0 6 0 C6 10.56 6 21.12 6 32 C4.02 32 2.04 32 0 32 C0 21.44 0 10.88 0 0 Z " fill="#5B3C89" transform="translate(0,224)"/>
<path d="M0 0 C2.64 0 5.28 0 8 0 C8 7.92 8 15.84 8 24 C5.36 24 2.72 24 0 24 C0 16.08 0 8.16 0 0 Z " fill="#80599B" transform="translate(438,168)"/>
<path d="M0 0 C5.28 0 10.56 0 16 0 C16 2.64 16 5.28 16 8 C13.36 8 10.72 8 8 8 C8 10.64 8 13.28 8 16 C5.36 16 2.72 16 0 16 C0 10.72 0 5.44 0 0 Z " fill="#B988D0" transform="translate(422,168)"/>
<path d="M0 0 C2.64 0 5.28 0 8 0 C8 7.92 8 15.84 8 24 C5.36 24 2.72 24 0 24 C0 16.08 0 8.16 0 0 Z " fill="#5B3C89" transform="translate(14,152)"/>
<path d="M0 0 C5.28 0 10.56 0 16 0 C16 5.28 16 10.56 16 16 C13.36 16 10.72 16 8 16 C8 13.36 8 10.72 8 8 C5.36 8 2.72 8 0 8 C0 5.36 0 2.72 0 0 Z " fill="#80599B" transform="translate(454,152)"/>
<path d="M0 0 C2.64 0 5.28 0 8 0 C8 2.64 8 5.28 8 8 C10.64 8 13.28 8 16 8 C16 10.64 16 13.28 16 16 C10.72 16 5.44 16 0 16 C0 10.72 0 5.44 0 0 Z " fill="#423167" transform="translate(110,128)"/>
<path d="M0 0 C2.64 0 5.28 0 8 0 C8 2.64 8 5.28 8 8 C10.64 8 13.28 8 16 8 C16 10.64 16 13.28 16 16 C10.72 16 5.44 16 0 16 C0 10.72 0 5.44 0 0 Z " fill="#F9CDFF" transform="translate(70,96)"/>
<path d="M0 0 C5.28 0 10.56 0 16 0 C16 5.28 16 10.56 16 16 C13.36 16 10.72 16 8 16 C8 13.36 8 10.72 8 8 C5.36 8 2.72 8 0 8 C0 5.36 0 2.72 0 0 Z " fill="#5B3C89" transform="translate(54,88)"/>
<path d="M0 0 C2.64 0 5.28 0 8 0 C8 5.28 8 10.56 8 16 C2.72 16 -2.56 16 -8 16 C-8 13.36 -8 10.72 -8 8 C-5.36 8 -2.72 8 0 8 C0 5.36 0 2.72 0 0 Z " fill="#80599B" transform="translate(398,56)"/>
<path d="M0 0 C5.28 0 10.56 0 16 0 C16 5.28 16 10.56 16 16 C13.36 16 10.72 16 8 16 C8 13.36 8 10.72 8 8 C5.36 8 2.72 8 0 8 C0 5.36 0 2.72 0 0 Z " fill="#B988D0" transform="translate(342,24)"/>
<path d="M0 0 C2.64 0 5.28 0 8 0 C8 7.92 8 15.84 8 24 C5.36 24 2.72 24 0 24 C0 16.08 0 8.16 0 0 Z " fill="#F9CDFF" transform="translate(214,8)"/>
<path d="M0 0 C5.28 0 10.56 0 16 0 C16 2.64 16 5.28 16 8 C10.72 8 5.44 8 0 8 C0 5.36 0 2.72 0 0 Z " fill="#F9CDFF" transform="translate(318,464)"/>
<path d="M0 0 C5.28 0 10.56 0 16 0 C16 2.64 16 5.28 16 8 C10.72 8 5.44 8 0 8 C0 5.36 0 2.72 0 0 Z " fill="#F9CDFF" transform="translate(150,464)"/>
<path d="M0 0 C2.64 0 5.28 0 8 0 C8 5.28 8 10.56 8 16 C5.36 16 2.72 16 0 16 C0 10.72 0 5.44 0 0 Z " fill="#5B3C89" transform="translate(310,456)"/>
<path d="M0 0 C2.64 0 5.28 0 8 0 C8 5.28 8 10.56 8 16 C5.36 16 2.72 16 0 16 C0 10.72 0 5.44 0 0 Z " fill="#5B3C89" transform="translate(142,456)"/>
<path d="M0 0 C5.28 0 10.56 0 16 0 C16 2.64 16 5.28 16 8 C10.72 8 5.44 8 0 8 C0 5.36 0 2.72 0 0 Z " fill="#5B3C89" transform="translate(286,440)"/>
<path d="M0 0 C5.28 0 10.56 0 16 0 C16 2.64 16 5.28 16 8 C10.72 8 5.44 8 0 8 C0 5.36 0 2.72 0 0 Z " fill="#423167" transform="translate(150,440)"/>
<path d="M0 0 C5.28 0 10.56 0 16 0 C16 2.64 16 5.28 16 8 C10.72 8 5.44 8 0 8 C0 5.36 0 2.72 0 0 Z " fill="#F9CDFF" transform="translate(318,432)"/>
<path d="M0 0 C5.28 0 10.56 0 16 0 C16 2.64 16 5.28 16 8 C10.72 8 5.44 8 0 8 C0 5.36 0 2.72 0 0 Z " fill="#423167" transform="translate(238,416)"/>
<path d="M0 0 C5.28 0 10.56 0 16 0 C16 2.64 16 5.28 16 8 C10.72 8 5.44 8 0 8 C0 5.36 0 2.72 0 0 Z " fill="#F9CDFF" transform="translate(278,344)"/>
<path d="M0 0 C2.64 0 5.28 0 8 0 C8 5.28 8 10.56 8 16 C5.36 16 2.72 16 0 16 C0 10.72 0 5.44 0 0 Z " fill="#423167" transform="translate(38,320)"/>
<path d="M0 0 C2.64 0 5.28 0 8 0 C8 5.28 8 10.56 8 16 C5.36 16 2.72 16 0 16 C0 10.72 0 5.44 0 0 Z " fill="#80599B" transform="translate(462,312)"/>
<path d="M0 0 C2.64 0 5.28 0 8 0 C8 5.28 8 10.56 8 16 C5.36 16 2.72 16 0 16 C0 10.72 0 5.44 0 0 Z " fill="#5B3C89" transform="translate(62,232)"/>
<path d="M0 0 C2.64 0 5.28 0 8 0 C8 5.28 8 10.56 8 16 C5.36 16 2.72 16 0 16 C0 10.72 0 5.44 0 0 Z " fill="#5B3C89" transform="translate(30,208)"/>
<path d="M0 0 C2.64 0 5.28 0 8 0 C8 5.28 8 10.56 8 16 C5.36 16 2.72 16 0 16 C0 10.72 0 5.44 0 0 Z " fill="#5B3C89" transform="translate(46,152)"/>
<path d="M0 0 C5.28 0 10.56 0 16 0 C16 2.64 16 5.28 16 8 C10.72 8 5.44 8 0 8 C0 5.36 0 2.72 0 0 Z " fill="#000000" transform="translate(430,144)"/>
<path d="M0 0 C2.64 0 5.28 0 8 0 C8 5.28 8 10.56 8 16 C5.36 16 2.72 16 0 16 C0 10.72 0 5.44 0 0 Z " fill="#B988D0" transform="translate(366,120)"/>
<path d="M0 0 C2.64 0 5.28 0 8 0 C8 5.28 8 10.56 8 16 C5.36 16 2.72 16 0 16 C0 10.72 0 5.44 0 0 Z " fill="#F9CDFF" transform="translate(334,120)"/>
<path d="M0 0 C2.64 0 5.28 0 8 0 C8 5.28 8 10.56 8 16 C5.36 16 2.72 16 0 16 C0 10.72 0 5.44 0 0 Z " fill="#80599B" transform="translate(406,112)"/>
<path d="M0 0 C5.28 0 10.56 0 16 0 C16 2.64 16 5.28 16 8 C10.72 8 5.44 8 0 8 C0 5.36 0 2.72 0 0 Z " fill="#B988D0" transform="translate(350,112)"/>
<path d="M0 0 C2.64 0 5.28 0 8 0 C8 5.28 8 10.56 8 16 C5.36 16 2.72 16 0 16 C0 10.72 0 5.44 0 0 Z " fill="#423167" transform="translate(222,72)"/>
<path d="M0 0 C5.28 0 10.56 0 16 0 C16 2.64 16 5.28 16 8 C10.72 8 5.44 8 0 8 C0 5.36 0 2.72 0 0 Z " fill="#80599B" transform="translate(174,40)"/>
<path d="M0 0 C5.28 0 10.56 0 16 0 C16 2.64 16 5.28 16 8 C4.93132643 8.78316087 4.93132643 8.78316087 1.25 5.6875 C0 3 0 3 0 0 Z " fill="#F9CDFF" transform="translate(350,144)"/>
<path d="M0 0 C2.64 0 5.28 0 8 0 C8 5.28 8 10.56 8 16 C6.68 16 5.36 16 4 16 C3.67 16.66 3.34 17.32 3 18 C2.30215669 15.565036 1.61646178 13.12772895 0.9375 10.6875 C0.73833984 9.99720703 0.53917969 9.30691406 0.33398438 8.59570312 C-1.11328125 3.33984375 -1.11328125 3.33984375 0 0 Z " fill="#80599B" transform="translate(382,208)"/>
<path d="M0 0 C2.64 0 5.28 0 8 0 C8.33 0.99 8.66 1.98 9 3 C3.89489352 8.85626657 -0.34235083 12.29830019 -8 14 C-8 12.02 -8 10.04 -8 8 C-5.36 8 -2.72 8 0 8 C0 5.36 0 2.72 0 0 Z " fill="#80599B" transform="translate(206,264)"/>
<path d="M0 0 C1.98 0 3.96 0 6 0 C6 5.28 6 10.56 6 16 C4.02 16 2.04 16 0 16 C0 10.72 0 5.44 0 0 Z " fill="#F9CDFF" transform="translate(0,224)"/>
<path d="M0 0 C5.47247917 1.76803173 10.75021185 3.65434998 16 6 C16 6.99 16 7.98 16 9 C10.72 9 5.44 9 0 9 C0 6.03 0 3.06 0 0 Z " fill="#795493" transform="translate(134,343)"/>
<path d="M0 0 C4 4 4 4 4 7 C4.66 7 5.32 7 6 7 C5.67 10.96 5.34 14.92 5 19 C3.35 19 1.7 19 0 19 C0 12.73 0 6.46 0 0 Z " fill="#EFC4F8" transform="translate(214,237)"/>
<path d="M0 0 C2.64 0 5.28 0 8 0 C8 2.64 8 5.28 8 8 C10.64 8 13.28 8 16 8 C16 9.32 16 10.64 16 12 C10.53262809 10.25192871 5.24175152 8.34205919 0 6 C0 4.02 0 2.04 0 0 Z " fill="#000000" transform="translate(326,128)"/>
<path d="M0 0 C2.56687367 3.8503105 1.83288724 5.58569763 1 10 C-1.64 10 -4.28 10 -7 10 C-7 7.36 -7 4.72 -7 2 C-4.69 2 -2.38 2 0 2 C0 1.34 0 0.68 0 0 Z " fill="#423168" transform="translate(301,334)"/>
<path d="M0 0 C2.64 0 5.28 0 8 0 C8 2.64 8 5.28 8 8 C5.36 8 2.72 8 0 8 C0 5.36 0 2.72 0 0 Z " fill="#F9CDFF" transform="translate(342,456)"/>
<path d="M0 0 C2.64 0 5.28 0 8 0 C8 2.64 8 5.28 8 8 C5.36 8 2.72 8 0 8 C0 5.36 0 2.72 0 0 Z " fill="#423167" transform="translate(270,448)"/>
<path d="M0 0 C2.64 0 5.28 0 8 0 C8 2.64 8 5.28 8 8 C5.36 8 2.72 8 0 8 C0 5.36 0 2.72 0 0 Z " fill="#423167" transform="translate(166,448)"/>
<path d="M0 0 C2.64 0 5.28 0 8 0 C8 2.64 8 5.28 8 8 C5.36 8 2.72 8 0 8 C0 5.36 0 2.72 0 0 Z " fill="#423167" transform="translate(318,440)"/>
<path d="M0 0 C2.64 0 5.28 0 8 0 C8 2.64 8 5.28 8 8 C5.36 8 2.72 8 0 8 C0 5.36 0 2.72 0 0 Z " fill="#423167" transform="translate(142,432)"/>
<path d="M0 0 C2.64 0 5.28 0 8 0 C8 2.64 8 5.28 8 8 C5.36 8 2.72 8 0 8 C0 5.36 0 2.72 0 0 Z " fill="#F9CDFF" transform="translate(334,424)"/>
<path d="M0 0 C2.64 0 5.28 0 8 0 C8 2.64 8 5.28 8 8 C5.36 8 2.72 8 0 8 C0 5.36 0 2.72 0 0 Z " fill="#F9CDFF" transform="translate(238,416)"/>
<path d="M0 0 C2.64 0 5.28 0 8 0 C8 2.64 8 5.28 8 8 C5.36 8 2.72 8 0 8 C0 5.36 0 2.72 0 0 Z " fill="#423167" transform="translate(230,416)"/>
<path d="M0 0 C2.64 0 5.28 0 8 0 C8 2.64 8 5.28 8 8 C5.36 8 2.72 8 0 8 C0 5.36 0 2.72 0 0 Z " fill="#F9CDFF" transform="translate(358,408)"/>
<path d="M0 0 C2.64 0 5.28 0 8 0 C8 2.64 8 5.28 8 8 C5.36 8 2.72 8 0 8 C0 5.36 0 2.72 0 0 Z " fill="#F9CDFF" transform="translate(230,408)"/>
<path d="M0 0 C2.64 0 5.28 0 8 0 C8 2.64 8 5.28 8 8 C5.36 8 2.72 8 0 8 C0 5.36 0 2.72 0 0 Z " fill="#F9CDFF" transform="translate(222,400)"/>
<path d="M0 0 C2.64 0 5.28 0 8 0 C8 2.64 8 5.28 8 8 C5.36 8 2.72 8 0 8 C0 5.36 0 2.72 0 0 Z " fill="#423167" transform="translate(94,400)"/>
<path d="M0 0 C2.64 0 5.28 0 8 0 C8 2.64 8 5.28 8 8 C5.36 8 2.72 8 0 8 C0 5.36 0 2.72 0 0 Z " fill="#80599B" transform="translate(78,400)"/>
<path d="M0 0 C2.64 0 5.28 0 8 0 C8 2.64 8 5.28 8 8 C5.36 8 2.72 8 0 8 C0 5.36 0 2.72 0 0 Z " fill="#423167" transform="translate(382,392)"/>
<path d="M0 0 C2.64 0 5.28 0 8 0 C8 2.64 8 5.28 8 8 C5.36 8 2.72 8 0 8 C0 5.36 0 2.72 0 0 Z " fill="#80599B" transform="translate(254,392)"/>
<path d="M0 0 C2.64 0 5.28 0 8 0 C8 2.64 8 5.28 8 8 C5.36 8 2.72 8 0 8 C0 5.36 0 2.72 0 0 Z " fill="#423167" transform="translate(222,392)"/>
<path d="M0 0 C2.64 0 5.28 0 8 0 C8 2.64 8 5.28 8 8 C5.36 8 2.72 8 0 8 C0 5.36 0 2.72 0 0 Z " fill="#423167" transform="translate(86,392)"/>
<path d="M0 0 C2.64 0 5.28 0 8 0 C8 2.64 8 5.28 8 8 C5.36 8 2.72 8 0 8 C0 5.36 0 2.72 0 0 Z " fill="#423167" transform="translate(390,384)"/>
<path d="M0 0 C2.64 0 5.28 0 8 0 C8 2.64 8 5.28 8 8 C5.36 8 2.72 8 0 8 C0 5.36 0 2.72 0 0 Z " fill="#B988D0" transform="translate(246,384)"/>
<path d="M0 0 C2.64 0 5.28 0 8 0 C8 2.64 8 5.28 8 8 C5.36 8 2.72 8 0 8 C0 5.36 0 2.72 0 0 Z " fill="#423167" transform="translate(78,384)"/>
<path d="M0 0 C2.64 0 5.28 0 8 0 C8 2.64 8 5.28 8 8 C5.36 8 2.72 8 0 8 C0 5.36 0 2.72 0 0 Z " fill="#80599B" transform="translate(102,376)"/>
<path d="M0 0 C2.64 0 5.28 0 8 0 C8 2.64 8 5.28 8 8 C5.36 8 2.72 8 0 8 C0 5.36 0 2.72 0 0 Z " fill="#F9CDFF" transform="translate(358,368)"/>
<path d="M0 0 C2.64 0 5.28 0 8 0 C8 2.64 8 5.28 8 8 C5.36 8 2.72 8 0 8 C0 5.36 0 2.72 0 0 Z " fill="#423167" transform="translate(342,368)"/>
<path d="M0 0 C2.64 0 5.28 0 8 0 C8 2.64 8 5.28 8 8 C5.36 8 2.72 8 0 8 C0 5.36 0 2.72 0 0 Z " fill="#423167" transform="translate(134,368)"/>
<path d="M0 0 C2.64 0 5.28 0 8 0 C8 2.64 8 5.28 8 8 C5.36 8 2.72 8 0 8 C0 5.36 0 2.72 0 0 Z " fill="#F9CDFF" transform="translate(126,368)"/>
<path d="M0 0 C2.64 0 5.28 0 8 0 C8 2.64 8 5.28 8 8 C5.36 8 2.72 8 0 8 C0 5.36 0 2.72 0 0 Z " fill="#80599B" transform="translate(110,368)"/>
<path d="M0 0 C2.64 0 5.28 0 8 0 C8 2.64 8 5.28 8 8 C5.36 8 2.72 8 0 8 C0 5.36 0 2.72 0 0 Z " fill="#F9CDFF" transform="translate(342,360)"/>
<path d="M0 0 C2.64 0 5.28 0 8 0 C8 2.64 8 5.28 8 8 C5.36 8 2.72 8 0 8 C0 5.36 0 2.72 0 0 Z " fill="#423167" transform="translate(262,360)"/>
<path d="M0 0 C2.64 0 5.28 0 8 0 C8 2.64 8 5.28 8 8 C5.36 8 2.72 8 0 8 C0 5.36 0 2.72 0 0 Z " fill="#423167" transform="translate(198,360)"/>
<path d="M0 0 C2.64 0 5.28 0 8 0 C8 2.64 8 5.28 8 8 C5.36 8 2.72 8 0 8 C0 5.36 0 2.72 0 0 Z " fill="#F9CDFF" transform="translate(118,360)"/>
<path d="M0 0 C2.64 0 5.28 0 8 0 C8 2.64 8 5.28 8 8 C5.36 8 2.72 8 0 8 C0 5.36 0 2.72 0 0 Z " fill="#F9CDFF" transform="translate(334,352)"/>
<path d="M0 0 C2.64 0 5.28 0 8 0 C8 2.64 8 5.28 8 8 C5.36 8 2.72 8 0 8 C0 5.36 0 2.72 0 0 Z " fill="#423167" transform="translate(182,352)"/>
<path d="M0 0 C2.64 0 5.28 0 8 0 C8 2.64 8 5.28 8 8 C5.36 8 2.72 8 0 8 C0 5.36 0 2.72 0 0 Z " fill="#80599B" transform="translate(126,352)"/>
<path d="M0 0 C2.64 0 5.28 0 8 0 C8 2.64 8 5.28 8 8 C5.36 8 2.72 8 0 8 C0 5.36 0 2.72 0 0 Z " fill="#F9CDFF" transform="translate(110,352)"/>
<path d="M0 0 C2.64 0 5.28 0 8 0 C8 2.64 8 5.28 8 8 C5.36 8 2.72 8 0 8 C0 5.36 0 2.72 0 0 Z " fill="#F9CDFF" transform="translate(30,352)"/>
<path d="M0 0 C2.64 0 5.28 0 8 0 C8 2.64 8 5.28 8 8 C5.36 8 2.72 8 0 8 C0 5.36 0 2.72 0 0 Z " fill="#80599B" transform="translate(366,344)"/>
<path d="M0 0 C2.64 0 5.28 0 8 0 C8 2.64 8 5.28 8 8 C5.36 8 2.72 8 0 8 C0 5.36 0 2.72 0 0 Z " fill="#423167" transform="translate(110,344)"/>
<path d="M0 0 C2.64 0 5.28 0 8 0 C8 2.64 8 5.28 8 8 C5.36 8 2.72 8 0 8 C0 5.36 0 2.72 0 0 Z " fill="#423167" transform="translate(46,336)"/>
<path d="M0 0 C2.64 0 5.28 0 8 0 C8 2.64 8 5.28 8 8 C5.36 8 2.72 8 0 8 C0 5.36 0 2.72 0 0 Z " fill="#5B3C89" transform="translate(54,328)"/>
<path d="M0 0 C2.64 0 5.28 0 8 0 C8 2.64 8 5.28 8 8 C5.36 8 2.72 8 0 8 C0 5.36 0 2.72 0 0 Z " fill="#423167" transform="translate(30,312)"/>
<path d="M0 0 C2.64 0 5.28 0 8 0 C8 2.64 8 5.28 8 8 C5.36 8 2.72 8 0 8 C0 5.36 0 2.72 0 0 Z " fill="#80599B" transform="translate(438,280)"/>
<path d="M0 0 C2.64 0 5.28 0 8 0 C8 2.64 8 5.28 8 8 C5.36 8 2.72 8 0 8 C0 5.36 0 2.72 0 0 Z " fill="#80599B" transform="translate(398,280)"/>
<path d="M0 0 C2.64 0 5.28 0 8 0 C8 2.64 8 5.28 8 8 C5.36 8 2.72 8 0 8 C0 5.36 0 2.72 0 0 Z " fill="#80599B" transform="translate(446,272)"/>
<path d="M0 0 C2.64 0 5.28 0 8 0 C8 2.64 8 5.28 8 8 C5.36 8 2.72 8 0 8 C0 5.36 0 2.72 0 0 Z " fill="#80599B" transform="translate(422,256)"/>
<path d="M0 0 C2.64 0 5.28 0 8 0 C8 2.64 8 5.28 8 8 C5.36 8 2.72 8 0 8 C0 5.36 0 2.72 0 0 Z " fill="#423167" transform="translate(406,256)"/>
<path d="M0 0 C2.64 0 5.28 0 8 0 C8 2.64 8 5.28 8 8 C5.36 8 2.72 8 0 8 C0 5.36 0 2.72 0 0 Z " fill="#F9CDFF" transform="translate(398,256)"/>
<path d="M0 0 C2.64 0 5.28 0 8 0 C8 2.64 8 5.28 8 8 C5.36 8 2.72 8 0 8 C0 5.36 0 2.72 0 0 Z " fill="#423167" transform="translate(86,256)"/>
<path d="M0 0 C2.64 0 5.28 0 8 0 C8 2.64 8 5.28 8 8 C5.36 8 2.72 8 0 8 C0 5.36 0 2.72 0 0 Z " fill="#F9CDFF" transform="translate(78,256)"/>
<path d="M0 0 C2.64 0 5.28 0 8 0 C8 2.64 8 5.28 8 8 C5.36 8 2.72 8 0 8 C0 5.36 0 2.72 0 0 Z " fill="#423167" transform="translate(70,256)"/>
<path d="M0 0 C2.64 0 5.28 0 8 0 C8 2.64 8 5.28 8 8 C5.36 8 2.72 8 0 8 C0 5.36 0 2.72 0 0 Z " fill="#80599B" transform="translate(430,248)"/>
<path d="M0 0 C2.64 0 5.28 0 8 0 C8 2.64 8 5.28 8 8 C5.36 8 2.72 8 0 8 C0 5.36 0 2.72 0 0 Z " fill="#423167" transform="translate(62,248)"/>
<path d="M0 0 C2.64 0 5.28 0 8 0 C8 2.64 8 5.28 8 8 C5.36 8 2.72 8 0 8 C0 5.36 0 2.72 0 0 Z " fill="#B988D0" transform="translate(414,232)"/>
<path d="M0 0 C2.64 0 5.28 0 8 0 C8 2.64 8 5.28 8 8 C5.36 8 2.72 8 0 8 C0 5.36 0 2.72 0 0 Z " fill="#F9CDFF" transform="translate(62,232)"/>
<path d="M0 0 C2.64 0 5.28 0 8 0 C8 2.64 8 5.28 8 8 C5.36 8 2.72 8 0 8 C0 5.36 0 2.72 0 0 Z " fill="#B988D0" transform="translate(406,224)"/>
<path d="M0 0 C2.64 0 5.28 0 8 0 C8 2.64 8 5.28 8 8 C5.36 8 2.72 8 0 8 C0 5.36 0 2.72 0 0 Z " fill="#80599B" transform="translate(86,224)"/>
<path d="M0 0 C2.64 0 5.28 0 8 0 C8 2.64 8 5.28 8 8 C5.36 8 2.72 8 0 8 C0 5.36 0 2.72 0 0 Z " fill="#B988D0" transform="translate(462,216)"/>
<path d="M0 0 C2.64 0 5.28 0 8 0 C8 2.64 8 5.28 8 8 C5.36 8 2.72 8 0 8 C0 5.36 0 2.72 0 0 Z " fill="#B988D0" transform="translate(390,208)"/>
<path d="M0 0 C2.64 0 5.28 0 8 0 C8 2.64 8 5.28 8 8 C5.36 8 2.72 8 0 8 C0 5.36 0 2.72 0 0 Z " fill="#F9CDFF" transform="translate(30,208)"/>
<path d="M0 0 C2.64 0 5.28 0 8 0 C8 2.64 8 5.28 8 8 C5.36 8 2.72 8 0 8 C0 5.36 0 2.72 0 0 Z " fill="#80599B" transform="translate(390,200)"/>
<path d="M0 0 C2.64 0 5.28 0 8 0 C8 2.64 8 5.28 8 8 C5.36 8 2.72 8 0 8 C0 5.36 0 2.72 0 0 Z " fill="#B988D0" transform="translate(422,176)"/>
<path d="M0 0 C2.64 0 5.28 0 8 0 C8 2.64 8 5.28 8 8 C5.36 8 2.72 8 0 8 C0 5.36 0 2.72 0 0 Z " fill="#423167" transform="translate(454,168)"/>
<path d="M0 0 C2.64 0 5.28 0 8 0 C8 2.64 8 5.28 8 8 C5.36 8 2.72 8 0 8 C0 5.36 0 2.72 0 0 Z " fill="#80599B" transform="translate(422,168)"/>
<path d="M0 0 C2.64 0 5.28 0 8 0 C8 2.64 8 5.28 8 8 C5.36 8 2.72 8 0 8 C0 5.36 0 2.72 0 0 Z " fill="#B988D0" transform="translate(438,160)"/>
<path d="M0 0 C2.64 0 5.28 0 8 0 C8 2.64 8 5.28 8 8 C5.36 8 2.72 8 0 8 C0 5.36 0 2.72 0 0 Z " fill="#423167" transform="translate(38,160)"/>
<path d="M0 0 C2.64 0 5.28 0 8 0 C8 2.64 8 5.28 8 8 C5.36 8 2.72 8 0 8 C0 5.36 0 2.72 0 0 Z " fill="#B988D0" transform="translate(446,152)"/>
<path d="M0 0 C2.64 0 5.28 0 8 0 C8 2.64 8 5.28 8 8 C5.36 8 2.72 8 0 8 C0 5.36 0 2.72 0 0 Z " fill="#F9CDFF" transform="translate(46,152)"/>
<path d="M0 0 C2.64 0 5.28 0 8 0 C8 2.64 8 5.28 8 8 C5.36 8 2.72 8 0 8 C0 5.36 0 2.72 0 0 Z " fill="#F9CDFF" transform="translate(14,152)"/>
<path d="M0 0 C2.64 0 5.28 0 8 0 C8 2.64 8 5.28 8 8 C5.36 8 2.72 8 0 8 C0 5.36 0 2.72 0 0 Z " fill="#423167" transform="translate(118,144)"/>
<path d="M0 0 C2.64 0 5.28 0 8 0 C8 2.64 8 5.28 8 8 C5.36 8 2.72 8 0 8 C0 5.36 0 2.72 0 0 Z " fill="#423167" transform="translate(54,144)"/>
<path d="M0 0 C2.64 0 5.28 0 8 0 C8 2.64 8 5.28 8 8 C5.36 8 2.72 8 0 8 C0 5.36 0 2.72 0 0 Z " fill="#F9CDFF" transform="translate(118,136)"/>
<path d="M0 0 C2.64 0 5.28 0 8 0 C8 2.64 8 5.28 8 8 C5.36 8 2.72 8 0 8 C0 5.36 0 2.72 0 0 Z " fill="#F9CDFF" transform="translate(22,136)"/>
<path d="M0 0 C2.64 0 5.28 0 8 0 C8 2.64 8 5.28 8 8 C5.36 8 2.72 8 0 8 C0 5.36 0 2.72 0 0 Z " fill="#B988D0" transform="translate(350,128)"/>
<path d="M0 0 C2.64 0 5.28 0 8 0 C8 2.64 8 5.28 8 8 C5.36 8 2.72 8 0 8 C0 5.36 0 2.72 0 0 Z " fill="#F9CDFF" transform="translate(110,128)"/>
<path d="M0 0 C2.64 0 5.28 0 8 0 C8 2.64 8 5.28 8 8 C5.36 8 2.72 8 0 8 C0 5.36 0 2.72 0 0 Z " fill="#B988D0" transform="translate(142,120)"/>
<path d="M0 0 C2.64 0 5.28 0 8 0 C8 2.64 8 5.28 8 8 C5.36 8 2.72 8 0 8 C0 5.36 0 2.72 0 0 Z " fill="#423167" transform="translate(110,120)"/>
<path d="M0 0 C2.64 0 5.28 0 8 0 C8 2.64 8 5.28 8 8 C5.36 8 2.72 8 0 8 C0 5.36 0 2.72 0 0 Z " fill="#F9CDFF" transform="translate(70,120)"/>
<path d="M0 0 C2.64 0 5.28 0 8 0 C8 2.64 8 5.28 8 8 C5.36 8 2.72 8 0 8 C0 5.36 0 2.72 0 0 Z " fill="#000000" transform="translate(342,112)"/>
<path d="M0 0 C2.64 0 5.28 0 8 0 C8 2.64 8 5.28 8 8 C5.36 8 2.72 8 0 8 C0 5.36 0 2.72 0 0 Z " fill="#80599B" transform="translate(134,112)"/>
<path d="M0 0 C2.64 0 5.28 0 8 0 C8 2.64 8 5.28 8 8 C5.36 8 2.72 8 0 8 C0 5.36 0 2.72 0 0 Z " fill="#000000" transform="translate(350,104)"/>
<path d="M0 0 C2.64 0 5.28 0 8 0 C8 2.64 8 5.28 8 8 C5.36 8 2.72 8 0 8 C0 5.36 0 2.72 0 0 Z " fill="#80599B" transform="translate(158,104)"/>
<path d="M0 0 C2.64 0 5.28 0 8 0 C8 2.64 8 5.28 8 8 C5.36 8 2.72 8 0 8 C0 5.36 0 2.72 0 0 Z " fill="#000000" transform="translate(358,96)"/>
<path d="M0 0 C2.64 0 5.28 0 8 0 C8 2.64 8 5.28 8 8 C5.36 8 2.72 8 0 8 C0 5.36 0 2.72 0 0 Z " fill="#80599B" transform="translate(166,96)"/>
<path d="M0 0 C2.64 0 5.28 0 8 0 C8 2.64 8 5.28 8 8 C5.36 8 2.72 8 0 8 C0 5.36 0 2.72 0 0 Z " fill="#423167" transform="translate(86,96)"/>
<path d="M0 0 C2.64 0 5.28 0 8 0 C8 2.64 8 5.28 8 8 C5.36 8 2.72 8 0 8 C0 5.36 0 2.72 0 0 Z " fill="#000000" transform="translate(366,88)"/>
<path d="M0 0 C2.64 0 5.28 0 8 0 C8 2.64 8 5.28 8 8 C5.36 8 2.72 8 0 8 C0 5.36 0 2.72 0 0 Z " fill="#423167" transform="translate(246,88)"/>
<path d="M0 0 C2.64 0 5.28 0 8 0 C8 2.64 8 5.28 8 8 C5.36 8 2.72 8 0 8 C0 5.36 0 2.72 0 0 Z " fill="#F9CDFF" transform="translate(238,88)"/>
<path d="M0 0 C2.64 0 5.28 0 8 0 C8 2.64 8 5.28 8 8 C5.36 8 2.72 8 0 8 C0 5.36 0 2.72 0 0 Z " fill="#423167" transform="translate(94,88)"/>
<path d="M0 0 C2.64 0 5.28 0 8 0 C8 2.64 8 5.28 8 8 C5.36 8 2.72 8 0 8 C0 5.36 0 2.72 0 0 Z " fill="#80599B" transform="translate(414,80)"/>
<path d="M0 0 C2.64 0 5.28 0 8 0 C8 2.64 8 5.28 8 8 C5.36 8 2.72 8 0 8 C0 5.36 0 2.72 0 0 Z " fill="#5B3C89" transform="translate(230,80)"/>
<path d="M0 0 C2.64 0 5.28 0 8 0 C8 2.64 8 5.28 8 8 C5.36 8 2.72 8 0 8 C0 5.36 0 2.72 0 0 Z " fill="#B988D0" transform="translate(366,72)"/>
<path d="M0 0 C2.64 0 5.28 0 8 0 C8 2.64 8 5.28 8 8 C5.36 8 2.72 8 0 8 C0 5.36 0 2.72 0 0 Z " fill="#F9CDFF" transform="translate(222,72)"/>
<path d="M0 0 C2.64 0 5.28 0 8 0 C8 2.64 8 5.28 8 8 C5.36 8 2.72 8 0 8 C0 5.36 0 2.72 0 0 Z " fill="#80599B" transform="translate(190,72)"/>
<path d="M0 0 C2.64 0 5.28 0 8 0 C8 2.64 8 5.28 8 8 C5.36 8 2.72 8 0 8 C0 5.36 0 2.72 0 0 Z " fill="#B988D0" transform="translate(390,64)"/>
<path d="M0 0 C2.64 0 5.28 0 8 0 C8 2.64 8 5.28 8 8 C5.36 8 2.72 8 0 8 C0 5.36 0 2.72 0 0 Z " fill="#80599B" transform="translate(350,64)"/>
<path d="M0 0 C2.64 0 5.28 0 8 0 C8 2.64 8 5.28 8 8 C5.36 8 2.72 8 0 8 C0 5.36 0 2.72 0 0 Z " fill="#B988D0" transform="translate(254,64)"/>
<path d="M0 0 C2.64 0 5.28 0 8 0 C8 2.64 8 5.28 8 8 C5.36 8 2.72 8 0 8 C0 5.36 0 2.72 0 0 Z " fill="#423167" transform="translate(222,64)"/>
<path d="M0 0 C2.64 0 5.28 0 8 0 C8 2.64 8 5.28 8 8 C5.36 8 2.72 8 0 8 C0 5.36 0 2.72 0 0 Z " fill="#80599B" transform="translate(198,64)"/>
<path d="M0 0 C2.64 0 5.28 0 8 0 C8 2.64 8 5.28 8 8 C5.36 8 2.72 8 0 8 C0 5.36 0 2.72 0 0 Z " fill="#B988D0" transform="translate(398,56)"/>
<path d="M0 0 C2.64 0 5.28 0 8 0 C8 2.64 8 5.28 8 8 C5.36 8 2.72 8 0 8 C0 5.36 0 2.72 0 0 Z " fill="#80599B" transform="translate(246,56)"/>
<path d="M0 0 C2.64 0 5.28 0 8 0 C8 2.64 8 5.28 8 8 C5.36 8 2.72 8 0 8 C0 5.36 0 2.72 0 0 Z " fill="#80599B" transform="translate(142,56)"/>
<path d="M0 0 C2.64 0 5.28 0 8 0 C8 2.64 8 5.28 8 8 C5.36 8 2.72 8 0 8 C0 5.36 0 2.72 0 0 Z " fill="#80599B" transform="translate(158,48)"/>
<path d="M0 0 C2.64 0 5.28 0 8 0 C8 2.64 8 5.28 8 8 C5.36 8 2.72 8 0 8 C0 5.36 0 2.72 0 0 Z " fill="#B988D0" transform="translate(334,40)"/>
<path d="M0 0 C2.64 0 5.28 0 8 0 C8 2.64 8 5.28 8 8 C5.36 8 2.72 8 0 8 C0 5.36 0 2.72 0 0 Z " fill="#80599B" transform="translate(198,40)"/>
<path d="M0 0 C2.64 0 5.28 0 8 0 C8 2.64 8 5.28 8 8 C5.36 8 2.72 8 0 8 C0 5.36 0 2.72 0 0 Z " fill="#5B3C89" transform="translate(126,32)"/>
<path d="M0 0 C2.64 0 5.28 0 8 0 C8 2.64 8 5.28 8 8 C5.36 8 2.72 8 0 8 C0 5.36 0 2.72 0 0 Z " fill="#423167" transform="translate(310,24)"/>
<path d="M0 0 C2.64 0 5.28 0 8 0 C8 2.64 8 5.28 8 8 C5.36 8 2.72 8 0 8 C0 5.36 0 2.72 0 0 Z " fill="#B988D0" transform="translate(334,16)"/>
<path d="M0 0 C2.64 0 5.28 0 8 0 C8 2.64 8 5.28 8 8 C5.36 8 2.72 8 0 8 C0 5.36 0 2.72 0 0 Z " fill="#80599B" transform="translate(246,16)"/>
<path d="M0 0 C2.64 0 5.28 0 8 0 C8 2.64 8 5.28 8 8 C5.36 8 2.72 8 0 8 C0 5.36 0 2.72 0 0 Z " fill="#80599B" transform="translate(166,16)"/>
<path d="M0 0 C2.64 0 5.28 0 8 0 C8 2.64 8 5.28 8 8 C5.36 8 2.72 8 0 8 C0 5.36 0 2.72 0 0 Z " fill="#B988D0" transform="translate(262,0)"/>
<path d="M0 0 C2.64 0 5.28 0 8 0 C8 2.64 8 5.28 8 8 C5.36 8 2.72 8 0 8 C0 5.36 0 2.72 0 0 Z " fill="#80599B" transform="translate(230,0)"/>
<path d="M0 0 C2.64 0 5.28 0 8 0 C8.625 2.3125 8.625 2.3125 9 5 C8.01 6.485 8.01 6.485 7 8 C3.375 8.1875 3.375 8.1875 0 8 C0 5.36 0 2.72 0 0 Z " fill="#F9CDFF" transform="translate(126,144)"/>
<path d="M0 0 C7.92 0 15.84 0 24 0 C23.34 1.32 22.68 2.64 22 4 C18.70694269 3.72283063 15.4159751 3.42581219 12.125 3.125 C11.18785156 3.04636719 10.25070312 2.96773437 9.28515625 2.88671875 C8.38925781 2.80292969 7.49335938 2.71914062 6.5703125 2.6328125 C5.74289551 2.55949707 4.91547852 2.48618164 4.06298828 2.41064453 C2 2 2 2 0 0 Z " fill="#000000" transform="translate(254,136)"/>
<path d="M0 0 C0 2.64 0 5.28 0 8 C-2.64 8 -5.28 8 -8 8 C-8 7.01 -8 6.02 -8 5 C-8.66 4.67 -9.32 4.34 -10 4 C-3.375 0 -3.375 0 0 0 Z " fill="#A97CC1" transform="translate(366,336)"/>
<path d="M0 0 C0.33 0.66 0.66 1.32 1 2 C2.98 2 4.96 2 7 2 C7 4.64 7 7.28 7 10 C5.35 10 3.7 10 2 10 C0 3.375 0 3.375 0 0 Z " fill="#403064" transform="translate(391,254)"/>
<path d="M0 0 C2.64 0 5.28 0 8 0 C8 2.64 8 5.28 8 8 C5.0280615 6.87548273 2.66559313 5.77706209 0 4 C0 2.68 0 1.36 0 0 Z " fill="#F9CDFF" transform="translate(342,136)"/>
<path d="M0 0 C2.64 0 5.28 0 8 0 C8 1.98 8 3.96 8 6 C5.36 6 2.72 6 0 6 C0 4.02 0 2.04 0 0 Z " fill="#F9CDFF" transform="translate(254,480)"/>
<path d="M0 0 C2.64 0 5.28 0 8 0 C8 1.98 8 3.96 8 6 C5.36 6 2.72 6 0 6 C0 4.02 0 2.04 0 0 Z " fill="#5B3C89" transform="translate(246,480)"/>
<path d="M0 0 C1.65 0 3.3 0 5 0 C5 2.64 5 5.28 5 8 C3.35 8 1.7 8 0 8 C0 5.36 0 2.72 0 0 Z " fill="#80599B" transform="translate(393,288)"/>
<path d="M0 0 C-2.26504965 1.19984797 -4.53589888 2.38494769 -6.8125 3.5625 C-7.45509766 3.90474609 -8.09769531 4.24699219 -8.75976562 4.59960938 C-10.46926395 5.4765023 -12.23321294 6.24515617 -14 7 C-14.99 6.67 -15.98 6.34 -17 6 C-14.53299901 3.09960695 -12.0531198 2.02988724 -8.5 0.75 C-7.5409375 0.39421875 -6.581875 0.0384375 -5.59375 -0.328125 C-3 -1 -3 -1 0 0 Z " fill="#251D2C" transform="translate(318,316)"/>
<path d="M0 0 C6.18160604 0.53753096 11.326858 2.54582388 17 5 C16.34 5.66 15.68 6.32 15 7 C11.13707928 6.63805683 8.10095701 5.21249765 4.6875 3.4375 C3.80449219 2.98246094 2.92148438 2.52742188 2.01171875 2.05859375 C1.34785156 1.70925781 0.68398437 1.35992187 0 1 C0 0.67 0 0.34 0 0 Z " fill="#5F4376" transform="translate(165,314)"/>
<path d="M0 0 C2.64 0.99 5.28 1.98 8 3 C8 3.99 8 4.98 8 6 C5.36 6 2.72 6 0 6 C0 4.02 0 2.04 0 0 Z " fill="#A67ABC" transform="translate(142,346)"/>
<path d="M0 0 C1.65 0 3.3 0 5 0 C4.67 2.31 4.34 4.62 4 7 C2.68 7.33 1.36 7.66 0 8 C0 5.36 0 2.72 0 0 Z " fill="#80599B" transform="translate(94,232)"/>
<path d="M0 0 C1.65 0 3.3 0 5 0 C4.55090939 1.48199902 4.09043436 2.96055236 3.625 4.4375 C3.36976563 5.26121094 3.11453125 6.08492188 2.8515625 6.93359375 C2 9 2 9 0 10 C0 6.7 0 3.4 0 0 Z " fill="#382957" transform="translate(214,256)"/>
<path d="M0 0 C0.66 0.33 1.32 0.66 2 1 C1 3.5 1 3.5 -1 6 C-3.79374292 6.46837899 -6.14221036 6.23424505 -9 6 C-9 5.34 -9 4.68 -9 4 C-7.54618103 3.30300448 -6.08677047 2.61766134 -4.625 1.9375 C-3.40683594 1.36322266 -3.40683594 1.36322266 -2.1640625 0.77734375 C-1.44992187 0.52082031 -0.73578125 0.26429688 0 0 Z " fill="#594478" transform="translate(343,346)"/>
<path d="M0 0 C0.99 0.33 1.98 0.66 3 1 C3 3.31 3 5.62 3 8 C1.68 7.67 0.36 7.34 -1 7 C-0.67 4.69 -0.34 2.38 0 0 Z " fill="#6C4C85" transform="translate(267,240)"/>
<path d="M0 0 C2.64 0 5.28 0 8 0 C8 1.32 8 2.64 8 4 C5.64828869 3.40138258 3.3140622 2.73075648 1 2 C0.67 1.34 0.34 0.68 0 0 Z " fill="#392A58" transform="translate(334,136)"/>
<path d="M0 0 C1.98 0 3.96 0 6 0 C6 0.99 6 1.98 6 3 C4.35 3.33 2.7 3.66 1 4 C0.67 2.68 0.34 1.36 0 0 Z " fill="#80599B" transform="translate(208,136)"/>
</svg>
